<svg id="Fill_Ouline" height="512" viewBox="0 0 64 64" width="512" xmlns="http://www.w3.org/2000/svg"><g id="Color"><g><path d="m38 15v-12h-12v12h-5l11 10 11-10z" fill="#ff7373"/><g><path d="m47.796 61h-31.592c-2.986 0-5.517-2.196-5.94-5.151l-3.264-22.849h50l-3.264 22.849c-.422 2.955-2.954 5.151-5.94 5.151z" fill="#48cae4"/><path d="m24.89 35h-11.46l.12.83c1.4 9.85 9.84 17.17 19.8 17.17h19.45c.47 0 .93-.05 1.37-.16l-.43 3.01c-.43 2.95-2.96 5.15-5.94 5.15h-31.6c-2.98 0-5.51-2.2-5.94-5.15l-3.26-22.85h50l-.29 2h-23.26c.03.27-.01.54-.1.81-.36 1.05-1.5 1.6-2.54 1.24z" fill="#00b4d8"/><path d="m59 33h-54c-1.105 0-2-.895-2-2s.895-2 2-2h54c1.105 0 2 .895 2 2s-.895 2-2 2z" fill="#ade8f4"/><g fill="#0096c7"><path d="m32 57c-1.105 0-2-.895-2-2v-12c0-1.105.895-2 2-2s2 .895 2 2v12c0 1.105-.895 2-2 2z"/><path d="m40 57c-1.105 0-2-.895-2-2v-12c0-1.105.895-2 2-2s2 .895 2 2v12c0 1.105-.895 2-2 2z"/><path d="m48 57c-1.105 0-2-.895-2-2v-12c0-1.105.895-2 2-2s2 .895 2 2v12c0 1.105-.895 2-2 2z"/><path d="m16 57c-1.105 0-2-.895-2-2v-12c0-1.105.895-2 2-2s2 .895 2 2v12c0 1.105-.895 2-2 2z"/><path d="m24 57c-1.105 0-2-.895-2-2v-12c0-1.105.895-2 2-2s2 .895 2 2v12c0 1.105-.895 2-2 2z"/></g><path d="m61 31c0 .55-.22 1.05-.59 1.41-.36.37-.86.59-1.41.59h-54c-1.1 0-2-.9-2-2 0-.55.22-1.05.59-1.41.36-.37.86-.59 1.41-.59h.31c.09 1.02.95 1.83 1.99 1.83h10.31l-5.29-1.83h20.23l.2.07c3.37 1.16 6.91 1.76 10.47 1.76h17.77c.01.05.01.11.01.17z" fill="#48cae4"/><path d="m34.35 33.814c-.361 1.044-1.5 1.597-2.544 1.236l-26.46-9.159c-1.044-.361-1.597-1.5-1.236-2.544s1.5-1.597 2.544-1.236l26.46 9.159c1.044.361 1.597 1.5 1.236 2.544z" fill="#00b4d8"/><path d="m34.35 33.81c-.36 1.05-1.5 1.6-2.54 1.24l-26.46-9.16c-.92-.32-1.46-1.23-1.33-2.15.1.06.21.11.33.15l26.46 9.16c1.04.36 2.18-.19 2.54-1.24.04-.13.07-.26.09-.39.83.46 1.23 1.46.91 2.39z" fill="#0096c7"/></g><g fill="#0077b6"><path d="m18 55v-12c0-1.015-.758-1.844-1.737-1.973-.163.289-.263.618-.263.973v12c0 1.014.758 1.844 1.737 1.973.163-.289.263-.618.263-.973z"/><path d="m26 55v-12c0-1.015-.758-1.844-1.737-1.973-.163.289-.263.618-.263.973v12c0 1.014.758 1.844 1.737 1.973.163-.289.263-.618.263-.973z"/><path d="m34 55v-12c0-1.015-.758-1.844-1.737-1.973-.163.289-.263.618-.263.973v12c0 1.014.758 1.844 1.737 1.973.163-.289.263-.618.263-.973z"/><path d="m42 55v-12c0-1.015-.758-1.844-1.737-1.973-.163.289-.263.618-.263.973v12c0 1.014.758 1.844 1.737 1.973.163-.289.263-.618.263-.973z"/><path d="m50 55v-12c0-1.015-.758-1.844-1.737-1.973-.163.289-.263.618-.263.973v12c0 1.014.758 1.844 1.737 1.973.163-.289.263-.618.263-.973z"/></g><path d="m32 13v-10h-6v12h-5l11 10 4.228-3.843c-2.555-1.812-4.228-4.787-4.228-8.157z" fill="#ef5350"/></g></g><g id="Outline_copy"><g fill="#023e8a"><path d="m59 28h-32.274l-8.62-2.984c-.522-.181-1.092.096-1.272.618s.097 1.091.618 1.272l15.336 5.309c.521.181.798.751.618 1.272-.181.521-.749.797-1.272.618l-26.46-9.159c-.521-.181-.799-.751-.618-1.272.087-.252.268-.456.508-.572s.509-.134.764-.046l7.344 2.542c.521.182 1.092-.096 1.272-.618s-.097-1.091-.618-1.272l-7.344-2.542c-.755-.262-1.569-.214-2.292.137-.721.35-1.262.96-1.524 1.717-.541 1.563.291 3.275 1.854 3.816l3.364 1.164h-3.384c-1.654 0-3 1.346-3 3s1.346 3 3 3h1.132l3.141 21.99c.49 3.426 3.47 6.01 6.931 6.01h31.592c3.461 0 6.44-2.583 6.931-6.01l1.561-10.923c.078-.547-.302-1.053-.849-1.131s-1.054.302-1.132.848l-1.561 10.923c-.35 2.447-2.478 4.293-4.95 4.293h-31.592c-2.472 0-4.601-1.846-4.95-4.293l-3.101-21.707h17.563l5.762 1.995c.324.112.654.166.979.166 1.244 0 2.409-.78 2.839-2.02.016-.046.019-.094.033-.14h20.518l-.975 6.823c-.078.547.302 1.053.849 1.131.048.007.096.01.143.01.49 0 .918-.36.989-.858l1.015-7.107h1.132c1.654 0 3-1.346 3-3s-1.346-3-3-3zm-54 4c-.552 0-1-.449-1-1s.448-1 1-1h9.161l5.778 2zm54 0h-23.787c-.32-.758-.936-1.386-1.772-1.675l-.938-.325h26.497c.552 0 1 .449 1 1s-.448 1-1 1z"/><path d="m32 40c-1.654 0-3 1.346-3 3v12c0 1.654 1.346 3 3 3s3-1.346 3-3v-12c0-1.654-1.346-3-3-3zm1 15c0 .551-.448 1-1 1s-1-.449-1-1v-12c0-.551.448-1 1-1s1 .449 1 1z"/><path d="m38 50c-.553 0-1 .448-1 1v4c0 1.654 1.346 3 3 3s3-1.346 3-3v-12c0-1.654-1.346-3-3-3s-3 1.346-3 3v4c0 .552.447 1 1 1s1-.448 1-1v-4c0-.551.448-1 1-1s1 .449 1 1v12c0 .551-.448 1-1 1s-1-.449-1-1v-4c0-.552-.447-1-1-1z"/><path d="m45 43v12c0 1.654 1.346 3 3 3s3-1.346 3-3v-12c0-1.654-1.346-3-3-3s-3 1.346-3 3zm4 0v12c0 .551-.448 1-1 1s-1-.449-1-1v-12c0-.551.448-1 1-1s1 .449 1 1z"/><path d="m13 43v12c0 1.654 1.346 3 3 3s3-1.346 3-3v-12c0-1.654-1.346-3-3-3s-3 1.346-3 3zm4 0v12c0 .551-.448 1-1 1s-1-.449-1-1v-12c0-.551.448-1 1-1s1 .449 1 1z"/><path d="m24 58c1.654 0 3-1.346 3-3v-12c0-1.654-1.346-3-3-3s-3 1.346-3 3v4c0 .552.447 1 1 1s1-.448 1-1v-4c0-.551.448-1 1-1s1 .449 1 1v12c0 .551-.448 1-1 1s-1-.449-1-1v-4c0-.552-.447-1-1-1s-1 .448-1 1v4c0 1.654 1.346 3 3 3z"/><path d="m52 37c0-.552-.447-1-1-1h-12c-.553 0-1 .448-1 1s.447 1 1 1h12c.553 0 1-.448 1-1z"/><path d="m26 37c0-.552-.447-1-1-1h-12c-.553 0-1 .448-1 1s.447 1 1 1h12c.553 0 1-.448 1-1z"/><path d="m31.327 25.74c.191.173.432.26.673.26s.482-.087.673-.26l11-10c.306-.278.409-.715.26-1.101-.149-.385-.52-.639-.933-.639h-4v-7c0-.552-.447-1-1-1s-1 .448-1 1v8c0 .552.447 1 1 1h2.413l-8.413 7.648-8.413-7.648h2.413c.553 0 1-.448 1-1v-11h11c.553 0 1-.448 1-1s-.447-1-1-1h-12c-.553 0-1 .448-1 1v11h-4c-.413 0-.784.254-.933.639-.149.386-.046.823.26 1.101z"/></g></g></svg>