<svg id="Layer_1" enable-background="new 0 0 468.504 468.504" height="512" viewBox="0 0 468.504 468.504" width="512" xmlns="http://www.w3.org/2000/svg"><g><g><g><path d="m200.543 271.855c-21.871-100.996 69.864-190.577 173.288-169.219 21.872 100.995-69.864 190.576-173.288 169.219z" fill="#8ecc3e"/></g><g><path d="m376.653 121.828c-.496-6.334-1.424-12.739-2.821-19.192-103.424-21.357-195.16 68.224-173.289 169.219 2.495.515 4.98.946 7.46 1.334-7.085-90.406 74.897-166.01 168.65-151.361z" fill="#75af23"/></g><path d="m344.649 170.644h-31.639l62.188-60.727c-.397-2.42-.838-4.846-1.365-7.281-2.494-.515-4.978-.946-7.456-1.333l-62.957 61.478v-29.892c0-3.313-2.687-6-6-6s-6 2.687-6 6v41.61l-92.241 90.074c.397 2.421.838 4.847 1.365 7.282 2.494.515 4.978.946 7.456 1.333l92.722-90.544h43.928c3.313 0 6-2.687 6-6s-2.688-6-6.001-6z" fill="#659b10"/></g><g><g><g><path d="m247.769 204.196c0 92.118-52.722 166.795-117.758 166.795s-117.759-74.677-117.759-166.795c0-70.945 69.845-159.844 101.954-196.964 8.341-9.642 23.268-9.642 31.609 0 32.108 37.119 101.954 126.019 101.954 196.964z" fill="#eaa15e"/></g><g><path d="m136.801 370.708c77.66-6.351 110.968-100.578 110.968-166.512 0-3.343-.156-6.725-.455-10.14-30.419 2.175-59.664 8.325-82.21 21.231-14.545 8.326-27.73 17.847-39.377 28.188-33.047 29.339-85.464 6.213-85.71-37.933-.003-.448-.004-.897-.004-1.346 0-70.945 69.845-159.844 101.954-196.964.605-.7 1.254-1.334 1.924-1.932-8.558-7.644-21.95-7.01-29.685 1.932-32.108 37.119-101.954 126.019-101.954 196.963 0 59.5 22 111.714 55.102 141.238 19.032 16.989 43.68 27.351 69.447 25.275z" fill="#e88f46"/></g><g><path d="m247.769 204.195c0-.859-.019-1.723-.039-2.588-28.711 2.461-56.109 8.627-77.484 20.863-55.836 31.962-91.63 81.524-97.449 127.53 16.94 13.365 36.447 20.99 57.215 20.99 65.034.001 117.757-74.676 117.757-166.795z" fill="#db8042"/></g></g><g><path d="m130.01 307.979c-3.313 0-6-2.686-6-6v-101.688c0-3.314 2.687-6 6-6s6 2.686 6 6v101.688c0 3.313-2.687 6-6 6z" fill="#d87e41"/></g><g><path d="m130.01 161.653c-3.313 0-6-2.687-6-6v-68.865c0-3.313 2.687-6 6-6s6 2.687 6 6v68.865c0 3.314-2.687 6-6 6z" fill="#d87e41"/></g><g><path d="m80.971 294.474c-2.502 0-4.837-1.578-5.683-4.08-17.987-53.204-17.987-111.806 0-165.009 1.061-3.14 4.465-4.823 7.605-3.763 3.139 1.061 4.823 4.466 3.762 7.605-17.148 50.726-17.148 106.598 0 157.324 1.062 3.139-.623 6.544-3.762 7.605-.636.216-1.284.318-1.922.318z" fill="#d87e41"/></g><g><path d="m179.049 293.57c-.644 0-1.298-.104-1.941-.324-3.136-1.072-4.808-4.483-3.736-7.618 17.146-50.145 17.334-105.438.531-155.695l-.544-1.63c-1.051-3.143.646-6.542 3.789-7.592 3.144-1.051 6.542.647 7.592 3.79l.544 1.628c17.632 52.737 17.435 110.761-.557 163.38-.853 2.493-3.183 4.061-5.678 4.061z" fill="#d87e41"/></g></g><g><g><g><path d="m303.426 438.041c-54.175 31.012-140.086 49.069-190.29.355-44.593-43.268-23.752-109.82 11.176-151.75 46.03-55.259 107.925-73.864 177.748-72.986 29.568.372 59.115 3.42 88.302 8.063 33.387 5.311 38.718 19.348 26.867 49.818-23.13 59.465-55.814 133.305-113.803 166.5z" fill="#eaa15e"/></g><g><path d="m139.985 420.324c-32.518-55.844 6.348-138.452 86.809-184.512 24.55-14.053 57.043-20.097 90.345-21.719-46.271-2.011-96.795 1.868-131.472 21.719-80.461 46.059-119.327 128.668-86.809 184.512 21.203 36.413 67.523 52.448 119.495 46.434-34.385-4.331-62.986-20.019-78.368-46.434z" fill="#e88f46"/></g></g><g><path d="m159.144 391.819c-6.192 0-7.809-8.448-2.986-11.208l57.664-33.009c2.875-1.646 6.541-.649 8.188 2.226 1.646 2.876.649 6.542-2.227 8.188l-57.664 33.009c-.94.538-1.965.794-2.975.794z" fill="#db8042"/></g><g><path d="m255.444 336.693c-6.192 0-7.809-8.448-2.986-11.208l91.659-52.469c2.873-1.647 6.54-.65 8.188 2.226 1.646 2.876.649 6.542-2.227 8.188l-91.659 52.469c-.94.539-1.965.794-2.975.794z" fill="#db8042"/></g><g><path d="m146.413 342.958c-4.837 0-7.735-6.337-4.477-9.992 37.464-42.032 88.628-71.321 144.066-82.473 3.244-.651 6.411 1.45 7.065 4.699s-1.45 6.412-4.698 7.065c-52.907 10.643-101.73 38.59-137.477 78.693-1.183 1.33-2.827 2.008-4.479 2.008z" fill="#db8042"/></g><g><path d="m196.237 426.722c-6.958 0-8.166-10.502-1.156-11.887 52.396-10.355 100.81-37.851 136.319-77.423l1.151-1.282c2.213-2.466 6.005-2.67 8.473-.458 2.466 2.213 2.671 6.007.457 8.473l-1.15 1.282c-37.234 41.494-87.992 70.324-142.924 81.18-.393.078-.785.115-1.17.115z" fill="#db8042"/></g></g><path d="m406.733 25.641h-10.45v-10.421c0-3.313-2.687-6-6-6s-6 2.687-6 6v10.421h-10.451c-3.313 0-6 2.687-6 6s2.687 6 6 6h10.451v10.421c0 3.313 2.687 6 6 6s6-2.687 6-6v-10.421h10.45c3.313 0 6-2.687 6-6s-2.687-6-6-6z" fill="#db8042"/><g><path d="m251.345 57.516c-14.08 0-25.535-11.608-25.535-25.875s11.455-25.875 25.535-25.875 25.535 11.608 25.535 25.875-11.455 25.875-25.535 25.875zm0-39.751c-7.463 0-13.535 6.225-13.535 13.875s6.072 13.875 13.535 13.875 13.535-6.225 13.535-13.875-6.072-13.875-13.535-13.875z" fill="#e0e0e0"/></g><g><path d="m430.717 201.817c-14.08 0-25.535-11.439-25.535-25.5s11.455-25.5 25.535-25.5 25.535 11.439 25.535 25.5-11.455 25.5-25.535 25.5zm0-39c-7.463 0-13.535 6.056-13.535 13.5s6.072 13.5 13.535 13.5 13.535-6.056 13.535-13.5-6.072-13.5-13.535-13.5z" fill="#e0e0e0"/></g><g><ellipse cx="153.687" cy="167.808" fill="#fff" rx="11.166" ry="17.472"/></g><g><path d="m108.034 191.863c.306 6.317-2.901 11.279-7.163 11.084s-7.966-5.474-8.273-11.79 2.901-11.279 7.163-11.084c4.263.194 7.967 5.473 8.273 11.79z" fill="#fff"/></g><g><path d="m256.784 374.008c-6.836 6.823-15.912 8.826-20.273 4.473s-2.354-13.413 4.481-20.236c6.836-6.823 15.912-8.826 20.273-4.473 4.361 4.352 2.354 13.412-4.481 20.236z" fill="#fff"/></g><g><path d="m360.719 155.922c.234 4.816-2.211 8.599-5.461 8.45s-6.073-4.173-6.307-8.989 2.211-8.599 5.461-8.45 6.073 4.174 6.307 8.989z" fill="#fff"/></g></g></svg>