<svg id="_x33_0" enable-background="new 0 0 64 64" height="512" viewBox="0 0 64 64" width="512" xmlns="http://www.w3.org/2000/svg"><g><circle cx="28" cy="16" r="1"/><circle cx="36" cy="16" r="1"/><path d="m28.211 22.658c.722 1.445 2.174 2.342 3.789 2.342s3.067-.897 3.789-2.342l.105-.211-1.789-.895-.105.212c-.381.762-1.147 1.236-2 1.236s-1.619-.474-2-1.236l-.105-.211-1.789.895z"/><path d="m62.736 26.726-4.031-17.738c-.534-2.348-2.589-3.988-4.997-3.988-2.596 0-4.708 2.112-4.708 4.708 0 1.795.997 3.409 2.603 4.211l1.397.699v11.768c-1.152.687-2.165 1.596-2.969 2.681-2.443-.186-4.934.266-7.129 1.364l-1.138.569h-1.375c-1.473 0-2.717-1.054-2.959-2.507l-.198-1.184c2.021-1.451 3.421-3.712 3.709-6.309h.059c2.206 0 4-1.794 4-4 0-.872-.288-1.674-.764-2.332l.71-4.267c.036-.211.054-.424.054-.637 0-1.469-.816-2.79-2.13-3.447l-.186-.093-.071-.107c-1.301-1.952-3.478-3.117-5.824-3.117h-.375l-.293-.293c-1.085-1.085-2.587-1.707-4.121-1.707s-3.036.622-4.121 1.707l-.293.293h-.375c-2.346 0-4.522 1.165-5.824 3.117l-.071.107-.186.093c-1.314.657-2.13 1.977-2.13 3.447 0 .213.018.427.053.633l.711 4.271c-.476.658-.764 1.46-.764 2.332 0 2.206 1.794 4 4 4h.059c.289 2.596 1.688 4.858 3.709 6.309l-.198 1.184c-.242 1.453-1.486 2.507-2.959 2.507h-6.076c-.401 0-.807.029-1.207.086-2.936.419-5.359 2.341-6.543 4.909-3.859 2.174-6.838 5.632-8.423 9.859-.24.639-.362 1.31-.362 1.994 0 1.66.723 3.231 1.983 4.312l10.089 8.647c1.65 1.414 3.755 2.193 5.928 2.193h26v-11.528c0-2.632.597-5.263 1.718-7.643l2.789-.837c4.642-1.393 8.632-4.178 11.54-8.055 1.26-1.68 1.953-3.76 1.953-5.858 0-.791-.089-1.583-.264-2.353zm-21.736-7.726v-4c1.103 0 2 .897 2 2s-.897 2-2 2zm-18.976-10.894.66-.33.366-.549c.93-1.394 2.486-2.227 4.161-2.227h1.203l.879-.879c.713-.712 1.699-1.121 2.707-1.121s1.994.409 2.707 1.121l.879.879h1.203c1.675 0 3.23.833 4.16 2.227l.366.549.66.33c.632.316 1.025.951 1.025 1.658 0 .101-.008.202-.025.305l-.535 3.21c-.448-.174-.931-.279-1.44-.279h-.044c-.201-1.124-1.075-2.043-2.225-2.273-2.217-.443-4.295-1.304-6.177-2.559l-.554-.37-.555.37c-1.882 1.254-3.96 2.115-6.177 2.559-1.15.23-2.024 1.15-2.225 2.273h-.043c-.509 0-.992.105-1.44.279l-.535-3.214c-.017-.099-.025-.2-.025-.301 0-.707.393-1.342 1.024-1.658zm-1.024 8.894c0-1.103.897-2 2-2v4c-1.103 0-2-.897-2-2zm4 3v-6.506c0-.391.278-.729.661-.806 2.259-.452 4.388-1.292 6.339-2.499 1.951 1.208 4.08 2.047 6.339 2.499.383.076.661.415.661.806v6.506c0 3.86-3.141 7-7 7s-7-3.14-7-7zm7 9c1.194 0 2.332-.239 3.376-.663l.081.485c.189 1.133.754 2.111 1.543 2.841v4.337c0 .551-.448 1-1 1h-8c-.552 0-1-.449-1-1v-4.336c.789-.73 1.354-1.708 1.543-2.841l.081-.486c1.044.424 2.182.663 3.376.663zm-17.627 30.289-10.089-8.648c-.816-.7-1.284-1.717-1.284-2.793 0-.443.079-.877.263-1.366 1.148-3.062 3.165-5.693 5.768-7.616-.018.222-.031.444-.031.67v3.464h2v-3.464c0-3.231 2.412-6.013 5.61-6.47.307-.044.619-.066.925-.066h3.465v3.265c0 2.182-.751 4.322-2.113 6.026-.989 1.235-2.28 2.217-3.733 2.841l-5.813 2.491 8.205 9.377h1.454c1.103 0 2 .897 2 2s-.897 2-2 2c-1.696 0-3.339-.608-4.627-1.711zm4.081-4.289-5.795-6.623 3.282-1.407c.747-.32 1.448-.734 2.111-1.202.619 1.839.948 3.749.948 5.704v3.528zm24.546-3.528v9.528h-20.556c.344-.591.556-1.268.556-2 0-1.474-.81-2.75-2-3.444v-4.084c0-2.437-.459-4.812-1.323-7.081.267-.273.532-.551.771-.85 1.646-2.058 2.552-4.642 2.552-7.276v-3.265h.611c.483 0 .945-.086 1.389-.214v3.214c0 1.654 1.346 3 3 3h8c1.654 0 3-1.346 3-3v-3.214c.444.128.905.214 1.389.214h.611v2c0 3.168 1.392 6.206 3.76 8.281-1.154 2.564-1.76 5.379-1.76 8.191zm16.447-17.735c-2.649 3.533-6.286 6.071-10.515 7.339l-2.702.811c-2.024-1.7-3.23-4.232-3.23-6.887v-2.382l.797-.398c2.709-1.354 5.948-1.585 8.819-.627l1.067.356.633-1.897-1.067-.356c-.305-.102-.616-.179-.927-.257 1.144-1.181 2.634-2.009 4.26-2.334l.614-.123-.393-1.961-.614.123c-.405.081-.8.195-1.189.324v-12.086l-2.503-1.251c-.924-.462-1.497-1.39-1.497-2.423 0-1.493 1.215-2.708 2.708-2.708 1.468 0 2.721 1 3.046 2.432l4.032 17.738c.142.624.214 1.267.214 1.909 0 1.668-.552 3.322-1.553 4.658z"/></g></svg>