<svg height="460pt" viewBox="0 0 460.856 460" width="460pt" xmlns="http://www.w3.org/2000/svg"><path d="m276.855469 48.429688h-96c-13.253907 0-24-10.746094-24-24l32-24h88c13.253906 0 24 10.742187 24 24 0 13.253906-10.746094 24-24 24zm0 0" fill="#95573a"/><path d="m403.886719 158.253906-67.886719-67.882812c-9.375-9.371094-9.375-24.570313 0-33.941406l39.601562 5.65625 62.222657 62.222656c9.375 9.371094 9.375 24.570312 0 33.945312-9.371094 9.367188-24.5625 9.367188-33.9375 0zm0 0" fill="#7a432a"/><path d="m131.886719 166.253906-67.886719-67.882812c-9.375-9.371094-9.375-24.570313 0-33.941406l39.601562 5.65625 62.222657 62.222656c9.375 9.371094 9.375 24.570312 0 33.945312-9.371094 9.367188-24.5625 9.367188-33.9375 0zm0 0" fill="#95573a"/><path d="m306.679688 137.394531-67.878907 67.890625c-9.375 9.375-24.570312 9.375-33.945312 0l5.65625-39.601562 62.222656-62.222656c9.375-9.375 24.574219-9.375 33.945313 0 9.371093 9.371093 9.371093 24.5625 0 33.933593zm0 0" fill="#7a432a"/><path d="m101.824219 217.394531-67.878907 67.890625c-9.375 9.375-24.574218 9.375-33.945312 0l5.664062-39.601562 62.222657-62.222656c9.375-9.371094 24.566406-9.371094 33.9375 0 9.367187 9.371093 9.367187 24.5625 0 33.933593zm0 0" fill="#7a432a"/><path d="m220.855469 304.429688h-96c-13.253907 0-24-10.746094-24-24l32-24h88c13.253906 0 24 10.742187 24 24 0 13.253906-10.746094 24-24 24zm0 0" fill="#95573a"/><path d="m340.855469 208.429688h96c13.253906 0 24 10.742187 24 24l-32 24h-88c-13.253907 0-24-10.746094-24-24 0-13.257813 10.746093-24 24-24zm0 0" fill="#95573a"/><path d="m68.855469 344.429688h96c13.253906 0 24 10.742187 24 24l-32 24h-88c-13.253907 0-24-10.746094-24-24 0-13.257813 10.746093-24 24-24zm0 0" fill="#7a432a"/><path d="m285.824219 385.394531-67.878907 67.890625c-9.375 9.375-24.574218 9.375-33.945312 0l5.664062-39.601562 62.222657-62.222656c9.375-9.371094 24.566406-9.371094 33.9375 0 9.367187 9.371093 9.367187 24.5625 0 33.933593zm0 0" fill="#95573a"/><path d="m371.886719 385.394531-67.886719-67.878906c-9.375-9.371094-9.375-24.570313 0-33.945313l39.601562 5.664063 62.222657 62.226563c9.367187 9.371093 9.367187 24.5625 0 33.933593-9.371094 9.371094-24.5625 9.371094-33.9375 0zm0 0" fill="#7a432a"/></svg>