<svg id="Layer_1" enable-background="new 0 0 33 33" height="512" viewBox="0 0 33 33" width="512" xmlns="http://www.w3.org/2000/svg"><g><path d="m30.5 7.858h-28c-1.105 0-2 .896-2 2v16.818c0 1.105.895 2 2 2h28c1.105 0 2-.895 2-2v-16.818c0-1.104-.895-2-2-2z" fill="#6f6f6f"/><g fill="#666"><path d="m1.02 25.835c-.01.47.35.88.82.88h2.74c.56 0 1.01.47.99 1.04-.04.53-.51.92-1.05.92h-2.02c-1.11 0-2-.89-2-2v-16.82c0-1.1.89-2 2-2h1.69c.56 0 1.01.47.98 1.04-.03.53-.5.93-1.03.93h-1.98c-.48 0-.83.4-.83.87v.01c0 .533.384.89.83.89h2.1c.57 0 1.02.47.99 1.04-.03.53-.51.93-1.04.93h-1.87c-.48 0-.87.39-.87.88 0 .569.392.89.83.89h2.34c.56 0 1.01.47.98 1.04-.03.53-.5.93-1.04.93h-2.53c-.45 0-.81.38-.78.83 0 .586.393.9.82.9h2.43c.54 0 .98.44.98.98s-.42.97-.96.99h-2.48c-.53 0-1.01.39-1.04.93-.03.56.42 1.03.99 1.03l3.44.01c.57 0 1.01.46.99 1.03-.03.53-.51.93-1.04.93h-3.56c-.47 0-.83.4-.82.88z"/><path d="m32.5 9.855v16.82c0 1.11-.9 2-2 2h-2.02c-.54 0-1.02-.39-1.05-.92-.02-.57.43-1.04.99-1.04h2.74c.47 0 .83-.41.82-.88v-.02c.01-.48-.35-.88-.82-.88h-3.56c-.53 0-1.01-.4-1.04-.93-.03-.57.42-1.03.99-1.03l3.44-.01c.56 0 1.02-.47.99-1.03-.03-.54-.51-.93-1.04-.93h-2.49c-.53-.02-.95-.45-.95-.99s.44-.98.98-.98h2.43c.427 0 .82-.314.82-.9.03-.45-.33-.83-.78-.83h-2.53c-.54 0-1.01-.4-1.04-.93-.03-.57.42-1.04.98-1.04h2.34c.438 0 .83-.321.83-.89 0-.49-.39-.88-.87-.88h-1.87c-.54 0-1.01-.4-1.04-.93-.03-.57.42-1.04.99-1.04h2.1c.48 0 .83-.4.82-.87 0-.01 0-.01 0-.02 0 0 0 0 0-.01.01-.47-.34-.87-.82-.87h-1.98c-.53 0-1-.4-1.04-.93-.02-.57.43-1.04.99-1.04h1.69c1.1 0 2 .9 2 2z"/></g><path d="m32.5 13.239v-3.381c0-1.104-.895-2-2-2h-28c-1.105 0-2 .896-2 2v3.381z" fill="#cacaca"/><path d="m.5 12.528h32v.711h-32z" fill="#f3f3f3"/><path d="m30.5 7.858h-28c-1.105 0-2 .896-2 2v.969c0 .615.501 1.117 1.117 1.117s1.11-.501 1.11-1.117v-.958c0-.515.422-.938.938-.931.701 0 1.017.399 1.017.881v1.298c0 .608.451 1.146 1.06 1.181.637.028 1.174-.48 1.174-1.117v-1.08c0-.568.497-.987 1.002-.931h.014c.544-.007.988.437.988.981v.901c0 .608.451 1.146 1.052 1.181.644.029 1.174-.48 1.174-1.117v-1.531c0-.537.458-.938.995-.931h.014.007c.544-.007.995.394.995.931v1.319c0 .601.451 1.138 1.052 1.174.644.029 1.174-.48 1.174-1.117l.001-1.189c0-.635.532-1.147 1.174-1.113.603.031 1.055.573 1.055 1.176v1.241c.017.601.509 1.085 1.114 1.085.616 0 1.117-.502 1.117-1.117v-1.175c0-.515.423-.938.938-.931.695 0 1.017.403 1.017.881v1.298c0 .608.451 1.146 1.053 1.181.645.028 1.174-.48 1.174-1.117v-1.08c0-.558.493-.988 1.003-.931.604 0 1.002.467 1.002.981v.965c0 .608.451 1.146 1.06 1.181.637.028 1.174-.48 1.174-1.117v-1.237c0-.537.451-.938.988-.931h.014.014c.537-.007.988.394.988.931v1.166c0 .601.451 1.138 1.053 1.174.645.029 1.174-.48 1.174-1.117v-1.308c.004-1.104-.891-2-1.996-2z" fill="#d3d3d3"/><circle cx="16.5" cy="18.267" fill="#f3f3f3" r="7.773"/><circle cx="16.5" cy="18.267" fill="#454545" r="6.809"/><circle cx="16.5" cy="18.267" fill="#3aa2eb" r="5.962"/><circle cx="16.5" cy="18.267" fill="#168de2" r="3.642"/><circle cx="18.595" cy="16.172" fill="#fff" r="1.547"/><circle cx="14.138" cy="20.629" fill="#fff" r=".687"/><g fill="#777"><path d="m25.53 5.387c-.347-.654-1.027-1.063-1.767-1.063h-7.243c-.74 0-1.42.409-1.767 1.063l-1.311 2.471h13.398z"/><path d="m6.419 6.091h-2.1c-.552 0-1 .448-1 1v.767h4.101v-.767c-.001-.552-.448-1-1.001-1z"/></g></g></svg>