<svg id="Layer_3" enable-background="new 0 0 64 64" height="512" viewBox="0 0 64 64" width="512" xmlns="http://www.w3.org/2000/svg"><g><path d="m37.691 26.338c-3.495-2.056-5.691-5.827-5.691-9.954 0-3.422 1.477-6.678 4.053-8.931 2.544-2.226 5.811-3.453 9.191-3.453 3.093 0 6.108.966 8.625 2.764 2.037 1.454 4.476 2.236 6.978 2.236h1.153l-.103.361c-1.259 4.404-1.897 8.963-1.897 13.544 0 2.041-.428 4.059-1.257 5.923-.699 1.572-1.758 2.91-3.055 3.935" fill="#c99728"/><path d="m60.847 9c-2.502 0-4.941-.782-6.977-2.236-2.517-1.798-5.533-2.764-8.626-2.764-3.381 0-6.647 1.227-9.192 3.453-2.575 2.254-4.052 5.509-4.052 8.931 0 3.804 1.881 7.289 4.911 9.423 1.655-.525 3.392-.807 5.16-.807h3.049c4.82 0 9.256 2.615 11.597 6.822.83-.859 1.524-1.862 2.026-2.993.829-1.865 1.257-3.883 1.257-5.924 0-4.581.638-9.14 1.897-13.544l.103-.361z" fill="#e7b532"/><path d="m31.994 28.601c-.228-2.923-2.11-5.482-4.874-6.554l-.12-.047v-1.063c0-1.26-.394-2.488-1.126-3.513-2.431-3.404-6.356-5.424-10.539-5.424-3.997 0-7.77 1.845-10.224 5-2.016 2.593-3.111 5.783-3.111 9.067v1.697c0 1.47.342 2.921 1 4.236.657 1.315 1 2.765 1 4.235v1.765h3.85c1.426 0 2.846.199 4.217.591 1.967.562 3.976.959 6.004 1.187" fill="#e7b532"/><path d="m22.317 31.342c1.764-.883 3.71-1.342 5.683-1.342 1.117-1.117 2.379-2.051 3.733-2.81-.629-2.313-2.307-4.249-4.613-5.144l-.12-.046v-1.063c0-1.26-.394-2.488-1.126-3.513-2.431-3.404-6.356-5.424-10.539-5.424-3.997 0-7.77 1.845-10.224 5-2.016 2.593-3.111 5.783-3.111 9.067v1.697c0 1.47.342 2.921 1 4.236.657 1.315 1 2.765 1 4.235v1.765h3.85c1.426 0 2.846.199 4.217.591 1.627.465 3.283.81 4.954 1.047.114-3.522 2.13-6.714 5.296-8.296z" fill="#f9cb66"/><path d="m46.442 59.665c-2.918-1.751-6.216-2.77-9.613-2.969l-6.492-.382c-3.392-.2-6.533-1.852-8.619-4.534-2.41-3.098-3.718-6.911-3.718-10.836 0-3.643 2.058-6.973 5.317-8.603 1.764-.882 3.71-1.341 5.683-1.341 3.201-3.201 7.543-5 12.071-5h3.049c4.858 0 9.328 2.653 11.654 6.918 1.46 2.678 2.226 5.681 2.226 8.733 0 5.256-2.475 10.205-6.679 13.359-.832.623-1.321 1.602-1.321 2.641 0 1.297-1.052 2.349-2.349 2.349-.426 0-.844-.116-1.209-.335z" fill="#f9cb66"/><path d="m58 41.651c0-3.052-.766-6.055-2.227-8.734-2.326-4.265-6.796-6.918-11.654-6.918h-3.049c-4.528 0-8.87 1.799-12.071 5-1.704 0-3.38.363-4.945 1.024-1.3 1.662-2.055 3.73-2.055 5.92 0 3.925 1.308 7.738 3.718 10.836 2.086 2.682 5.227 4.334 8.619 4.534l6.492.382c3.311.195 6.525 1.173 9.387 2.843.216-.598.583-1.138 1.104-1.529 4.206-3.153 6.681-8.102 6.681-13.358z" fill="#ffd992"/><path d="m48.476 47.267c-2.833-8.498-9.929-14.98-18.584-17.075-.302.263-.607.523-.892.808-.966 0-1.926.113-2.861.33l2.651.648c8.291 1.776 15.107 7.877 17.789 15.921l.473 1.417 1.896-.633z" fill="#f9cb66"/><path d="m20.838 22c1.989 0 3.956.319 5.847.949l3.347 1.113c-.783-.873-1.769-1.573-2.911-2.016l-.121-.046v-1.04c-1.997-.63-4.067-.96-6.162-.96-2.742 0-5.32 1.068-7.259 3.007l-4.286 4.286 1.414 1.414 4.286-4.286c1.561-1.561 3.637-2.421 5.845-2.421z" fill="#e7b532"/><path d="m49 13v-2c-6.065 0-11 4.935-11 11v3.506c.657-.163 1.325-.281 2-.365v-3.141c0-4.962 4.037-9 9-9z" fill="#c99728"/><path d="m3 36.235v1.765c0 .552.447 1 1 1h3.85c1.334 0 2.66.186 3.943.552 1.707.488 3.462.85 5.228 1.094-.003.1-.021.197-.021.298 0 4.126 1.396 8.192 3.929 11.45 2.263 2.909 5.67 4.702 9.35 4.918l6.492.382c3.222.189 6.389 1.168 9.157 2.829.52.312 1.116.477 1.722.477 1.847 0 3.35-1.502 3.35-3.349 0-.721.344-1.409.92-1.841 4.434-3.325 7.08-8.618 7.08-14.159 0-3.003-.72-5.981-2.069-8.66 1.149-1.055 2.092-2.33 2.727-3.757.89-2.006 1.342-4.136 1.342-6.329 0-4.487.625-8.952 1.857-13.268l.104-.361c.087-.302.026-.627-.162-.877-.19-.252-.485-.399-.799-.399h-1.153c-2.308 0-4.519-.708-6.396-2.05-2.703-1.93-5.887-2.95-9.207-2.95-3.624 0-7.122 1.314-9.85 3.701-2.792 2.443-4.394 5.973-4.394 9.683 0 3.692 1.664 7.17 4.423 9.53-.927.304-1.833.67-2.698 1.122-.647-2.485-2.372-4.605-4.725-5.701v-.398c0-1.478-.454-2.893-1.313-4.094-2.612-3.659-6.856-5.843-11.352-5.843-4.338 0-8.352 1.963-11.013 5.386-2.142 2.754-3.322 6.192-3.322 9.681v1.697c0 1.616.382 3.236 1.105 4.683.585 1.171.895 2.481.895 3.788zm47.72 17.975c-1.077.808-1.72 2.094-1.72 3.441 0 .744-.605 1.349-1.35 1.349-.244 0-.483-.066-.693-.192-3.045-1.826-6.526-2.902-10.069-3.11l-6.492-.382c-3.104-.183-5.979-1.695-7.889-4.149-2.262-2.909-3.507-6.539-3.507-10.223 0-3.285 1.825-6.239 4.764-7.708 1.588-.794 3.362-1.215 5.138-1.231 8.24 1.807 15.008 7.886 17.678 15.894l.473 1.417 1.896-.633-.473-1.417c-2.701-8.102-9.277-14.378-17.406-16.766 2.834-2.263 6.321-3.5 10.001-3.5h3.049.001c4.494 0 8.622 2.451 10.774 6.396 1.377 2.524 2.105 5.379 2.105 8.255 0 4.915-2.348 9.61-6.28 12.559zm-17.72-37.826c0-3.134 1.353-6.115 3.711-8.179 2.363-2.066 5.393-3.205 8.533-3.205 2.901 0 5.684.892 8.045 2.578 2.173 1.553 4.727 2.389 7.395 2.421-1.118 4.211-1.684 8.548-1.684 12.906 0 1.912-.394 3.768-1.171 5.517-.464 1.044-1.121 1.999-1.926 2.809-2.641-3.873-7.033-6.231-11.782-6.231h-.001-3.049c-.36 0-.715.03-1.071.051v-3.051c0-4.962 4.037-9 9-9v-2c-6.065 0-11 4.935-11 11v3.273c-.027.005-.056.007-.083.012-3.034-1.923-4.917-5.293-4.917-8.901zm-30 9.683c0-3.046 1.03-6.048 2.9-8.453 2.281-2.932 5.719-4.614 9.435-4.614 3.852 0 7.487 1.871 9.726 5.005.561.785.867 1.701.918 2.659-1.679-.435-3.401-.664-5.141-.664-2.742 0-5.32 1.068-7.259 3.007l-4.286 4.286 1.414 1.414 4.286-4.286c1.561-1.561 3.637-2.421 5.845-2.421 1.986 0 3.95.319 5.837.946l.084.032c2.205.855 3.781 2.847 4.157 5.159-.817.558-1.602 1.173-2.33 1.869-1.979.061-3.946.556-5.717 1.441-2.921 1.46-4.925 4.119-5.599 7.215-1.664-.231-3.318-.573-4.928-1.032-1.461-.418-2.973-.63-4.492-.63h-2.85v-.765c0-1.616-.382-3.235-1.105-4.682-.585-1.171-.895-2.481-.895-3.789z"/></g></svg>