<svg id="Capa_1" enable-background="new 0 0 512 512" height="512" viewBox="0 0 512 512" width="512" xmlns="http://www.w3.org/2000/svg"><g><g><g><path d="m248.214 141.659-120.357-60.178 120.357-60.179 120.357 60.179z" fill="#e4f6ff"/></g><g><path d="m248.214 21.302-18.376 9.188 84.757 42.378c7.097 3.548 7.097 13.676 0 17.224l-84.757 42.378 18.376 9.188 120.357-60.178z" fill="#d3effb"/></g><g><path d="m127.857 81.481 120.357 60.178v144.428l-120.357-60.178z" fill="#b1e4f9"/></g><g><path d="m368.571 81.481-120.357 60.178v144.428l120.357-60.178z" fill="#90d8f9"/></g></g><g><g><path d="m127.857 346.266-120.357-60.179 120.357-60.178 120.357 60.178z" fill="#e4f6ff"/></g><g><path d="m127.857 225.909-18.376 9.188 84.757 42.378c7.097 3.548 7.097 13.676 0 17.224l-84.757 42.379 18.376 9.188 120.357-60.178z" fill="#d3effb"/></g><g><path d="m7.5 286.087 120.357 60.179v144.428l-120.357-60.178z" fill="#b1e4f9"/></g><g><path d="m248.214 286.087-120.357 60.179v144.428l120.357-60.178z" fill="#90d8f9"/></g></g><g><g><path d="m369.984 343.947-83.559-105.475 134.516-3.562 83.559 105.475z" fill="#e4f6ff"/></g><g><path d="m420.941 234.91-20.538.544 58.843 74.277c4.927 6.219.639 15.394-7.292 15.604l-94.728 2.508 12.758 16.104 134.516-3.562z" fill="#d3effb"/></g><g><path d="m286.425 238.472 83.559 105.475-61.148 130.845-83.559-105.475z" fill="#b1e4f9"/></g><g><path d="m504.5 340.385-134.516 3.562-61.148 130.845 134.516-3.562z" fill="#90d8f9"/></g></g><g><path d="m510.379 335.728-83.56-105.476c-1.466-1.849-3.688-2.925-6.077-2.84l-45.192 1.197c.329-.849.52-1.758.52-2.701v-144.413c0-.005.001-.009.001-.014 0-2.841-1.605-5.438-4.146-6.708l-60.075-30.037c-3.707-1.855-8.211-.351-10.062 3.354-1.853 3.705-.351 8.21 3.354 10.062l46.659 23.329-103.587 51.793-103.587-51.793 103.586-51.793 25.547 12.772c3.707 1.855 8.211.351 10.062-3.354 1.853-3.705.351-8.21-3.354-10.062l-28.901-14.45c-2.111-1.057-4.597-1.057-6.708 0l-120.356 60.179c-2.541 1.271-4.146 3.867-4.146 6.708 0 .014.003.028.003.042v139.75l-116.214 58.106c-2.541 1.271-4.146 3.867-4.146 6.708v.001 41.78c0 4.143 3.358 7.5 7.5 7.5s7.5-3.357 7.5-7.5v-29.646l105.357 52.679v127.66l-105.357-52.678v-62.938c0-4.143-3.358-7.5-7.5-7.5s-7.5 3.357-7.5 7.5v67.573c0 2.841 1.605 5.438 4.146 6.708l120.36 60.181c1.056.528 2.205.792 3.354.792s2.299-.264 3.354-.792l120.35-60.181c2.541-1.271 4.146-3.867 4.146-6.708v-10.708l47.247 59.639c1.425 1.799 3.592 2.843 5.879 2.843.065 0 .132-.001.198-.003l134.516-3.562c2.84-.075 5.394-1.748 6.597-4.321l18.07-38.666c1.753-3.753.133-8.217-3.619-9.971-3.754-1.752-8.217-.134-9.971 3.619l-16.107 34.467-117.75 3.118 54.048-115.652 117.75-3.118-23.087 49.402c-1.753 3.753-.133 8.217 3.619 9.971 1.027.479 2.107.707 3.171.707 2.822 0 5.525-1.602 6.8-4.326l28.225-60.396c1.201-2.574.847-5.607-.917-7.833zm-149.309-242.112v127.657l-16.295 8.151-58.549 1.551c-.018 0-.029.006-.046.007-2.732.091-5.314 1.669-6.551 4.314l-16.28 34.837-7.636 3.818v-127.657zm-120.356 52.678v127.658l-105.354-52.678v-127.657zm-112.857 88 103.584 51.794-103.584 51.793-103.586-51.794zm112.853 191.589-105.353 52.681v-127.663l105.353-52.677v20.353l-22.228 47.564c-1.203 2.574-.848 5.606.916 7.833l21.312 26.902zm66.469 34.74-73.145-92.331 54.048-115.651 73.145 92.33zm66.355-124.272-71.916-90.778 115.772-3.066 71.916 90.778z"/><circle cx="334.793" cy="192.358" r="8.081"/><circle cx="334.793" cy="161.043" r="8.081"/><circle cx="303.478" cy="203.47" r="8.081"/></g></g></svg>