<svg id="Capa_1" enable-background="new 0 0 512 512" height="512" viewBox="0 0 512 512" width="512" xmlns="http://www.w3.org/2000/svg"><g id="XMLID_468_"><path id="XMLID_4601_" d="m256 324.5 20 41.5-20 41.5h-176.82l-48.76-83z" fill="#ebe2df"/><path id="XMLID_4606_" d="m484.56 324.5-48.76 83h-179.8v-83z" fill="#d2c5c2"/><path id="XMLID_4597_" d="m256 144.51 10 20.165-10 29.825h-20.53c-37.22 0-67.5-30.28-67.5-67.5v-22.5h26.5c27.44 0 50.98 16.46 61.53 40.01z" fill="#a8e62e"/><path id="XMLID_4599_" d="m327.24 118.5v21.37c0 30.12-24.51 54.63-54.63 54.63h-16.61v-49.99c9.63-15.59 26.97-26.01 46.61-26.01z" fill="#6bb324"/><path id="XMLID_4600_" d="m256 180.5 30 79-30 79h-172.01v-158h56.01l15 10 15-10z" fill="#f5f3f2"/><g fill="#ebe2df"><path id="XMLID_4043_" d="m228 239.5h30v31h-30z"/><path id="XMLID_4607_" d="m430.99 240-10 15 10 15v68.5h-174.99v-158h174.99z"/><path id="XMLID_4044_" d="m140 180.5h30v31h-30z"/></g><path id="XMLID_4042_" d="m399.991 240h31v30h-31z" fill="#d2c5c2"/><path id="XMLID_4041_" d="m172.491 292.5h30v31h-30z" fill="#ebe2df"/><path id="XMLID_4039_" d="m312.491 292.5h30v31h-30z" fill="#d2c5c2"/><path id="XMLID_4603_" d="m256 316.5 10 15-10 15h-256v-30z" fill="#d2c5c2"/><path id="XMLID_4605_" d="m256 316.5h256v30h-256z" fill="#b8abab"/></g></svg>