<svg id="Capa_1" height="512" width="512" viewBox="0 0 512 512" xmlns="http://www.w3.org/2000/svg"><path d="m412.877 381.909c6.927-34.111-15.777-67.358-50.435-73.058-31.608-5.198-62.349 15.217-69.828 46.364-2.31 9.619-2.231 19.211-.167 28.185 1.366 5.939-1.065 12.111-6.164 15.448-13.591 8.892-23.684 23.116-26.865 40.43-5.859 31.884 14.49 63.304 45.992 70.957 34.149 8.296 68.046-13.467 74.976-47.59 1.795-8.84 1.595-17.619-.285-25.877-1.366-6.001 1.015-12.227 6.163-15.599 13.274-8.697 23.206-22.481 26.613-39.26z" fill="#a1e42c"/><path d="m384.699 317.13c6.554 12.217 9.057 26.699 6.082 41.348-3.407 16.78-13.339 30.563-26.613 39.258-5.149 3.372-7.53 9.598-6.163 15.599 1.88 8.258 2.08 17.037.285 25.877-6.929 34.123-40.826 55.886-74.976 47.59-6.312-1.533-12.166-4.034-17.461-7.288 8.04 14.902 22.076 26.473 39.556 30.719 34.149 8.296 68.046-13.467 74.975-47.59 1.795-8.84 1.596-17.619-.284-25.877-1.366-6.001 1.015-12.227 6.163-15.599 13.274-8.695 23.206-22.478 26.613-39.258 5.296-26.077-6.737-51.633-28.177-64.779z" fill="#95d528"/><circle cx="404.282" cy="65.722" fill="#fa4954" r="38.873"/><path d="m370.409 84.788c4.522 1.842 9.466 2.865 14.65 2.865 21.469 0 38.873-17.404 38.873-38.873 0-6.93-1.822-13.432-5.001-19.067 14.206 5.786 24.223 19.723 24.223 36.008 0 21.469-17.404 38.873-38.873 38.873-14.538.001-27.204-7.985-33.872-19.806z" fill="#fa2a3b"/><path d="m437.823 2.645c-2.768-3.198-7.604-3.543-10.801-.775l-15.083 13.063v-7.275c0-4.229-3.428-7.657-7.657-7.657s-7.657 3.428-7.657 7.657v7.275l-15.083-13.063c-3.197-2.771-8.034-2.421-10.801.775-2.769 3.196-2.422 8.033.775 10.801l27.754 24.036c2.834 2.452 7.191 2.452 10.026 0l27.753-24.036c3.195-2.768 3.542-7.605.774-10.801z" fill="#89c627"/><path d="m499.247 188.538c-3.216-4.712-3.467-10.753-.698-15.74 12.567-22.632 9.885-51.807-8.322-71.645-21.171-23.067-55.385-26.168-80.078-9.328-4.878 3.327-11.244 3.539-16.182.301-10.216-6.699-22.541-10.446-35.768-10.017l-1.449.049c-6.866.232-12.886-4.38-14.628-11.026-7.04-26.854-31.742-46.555-60.95-45.92-32.332.702-58.955 26.863-60.188 59.179-1.34 35.121 26.735 64.015 61.558 64.015h.168c8.587-.023 16.175 5.407 18.726 13.607 7.801 25.069 31.173 43.272 58.81 43.272.415 0 .829-.004 1.242-.012 13.366-.266 24.314 10.049 25.483 23.367 1.247 14.2 7.404 28.049 18.479 38.791 23.194 22.498 60.462 23.109 84.336 1.333 23.204-21.165 26.348-55.48 9.461-80.226z" fill="#a1e42c"/><path d="m499.247 188.538c-3.216-4.712-3.467-10.753-.698-15.74 12.567-22.632 9.885-51.807-8.322-71.645-8.366-9.115-18.772-15.099-29.82-17.981.218.23.442.45.657.684 18.208 19.837 20.889 49.012 8.323 71.645-2.769 4.987-2.518 11.028.698 15.74 16.887 24.746 13.743 59.061-9.461 80.226-15.843 14.451-37.582 19.032-57.195 13.91.655.696 1.329 1.381 2.022 2.054 23.194 22.498 60.462 23.109 84.336 1.333 23.203-21.165 26.347-55.48 9.46-80.226z" fill="#95d528"/><path d="m349.213 130.142h-333.358c-7.609 0-13.777 6.168-13.777 13.777v154.715c0 7.18 5.82 13 13 13h334.135c7.18 0 13-5.82 13-13v-155.492c0-7.179-5.82-13-13-13z" fill="#c7eefb"/><path d="m348.941 130.142h-28.267v121.213c0 10.087-8.177 18.264-18.264 18.264h-300.332v28.742c0 7.33 5.942 13.272 13.272 13.272h333.591c7.33 0 13.272-5.942 13.272-13.272v-154.947c0-7.33-5.942-13.272-13.272-13.272z" fill="#97e4f9"/><path d="m376.38 184.446-298.896 147.612c-6.822 3.369-9.621 11.631-6.252 18.453l68.508 138.72c3.179 6.437 10.975 9.079 17.412 5.9l299.592-147.957c6.437-3.179 9.079-10.975 5.9-17.412l-68.852-139.417c-3.179-6.437-10.975-9.079-17.412-5.899z" fill="#e8f3ff"/><path d="m462.524 329.518-68.611-138.929c-3.246-6.572-11.205-9.269-17.777-6.023l-24.399 12.049 57.246 115.915c3.246 6.572.549 14.531-6.023 17.777l-274.706 135.667 11.366 23.014c3.246 6.572 11.205 9.269 17.777 6.023l299.104-147.716c6.572-3.246 9.269-11.205 6.023-17.777z" fill="#c7eefb"/><g fill="#97e4f9"><path d="m295.075 284.709c-1.6.008-3.127.315-4.532.868-2.108.829-4.48.829-6.588 0-1.405-.553-2.933-.86-4.532-.868-6.732-.032-12.459 5.497-12.651 12.226-.203 7.124 5.511 12.962 12.589 12.962 1.63 0 3.186-.311 4.615-.876 2.092-.827 4.455-.827 6.547 0 1.428.565 2.985.876 4.615.876 7.078 0 12.792-5.838 12.589-12.962-.193-6.729-5.92-12.259-12.652-12.226z"/><path d="m155.859 188.316c-1.137-1.126-2.434-1.989-3.818-2.591-2.077-.904-3.754-2.581-4.658-4.658-.603-1.384-1.466-2.682-2.591-3.818-4.737-4.783-12.697-4.923-17.591-.3-5.181 4.894-5.268 13.063-.264 18.067 1.152 1.152 2.473 2.033 3.882 2.644 2.064.894 3.735 2.565 4.629 4.629.611 1.41 1.491 2.73 2.644 3.882 5.005 5.005 13.174 4.917 18.067-.264 4.623-4.894 4.483-12.854-.3-17.591z"/><circle cx="197.608" cy="361.821" r="12.594"/><circle cx="266.766" cy="339.788" r="12.594"/></g></svg>