<svg id="Layer_3" enable-background="new 0 0 64 64" height="512" viewBox="0 0 64 64" width="512" xmlns="http://www.w3.org/2000/svg"><g><g><path d="m17.063 28.109c.249-4.821 1.239-9.58 2.937-14.109l1 1 5-8 3 3 8-7 3 3 6-4 3 2 3-1 1 4 6-4-2 8 2 1-3 5h6l-3 6 3 2-5 7 1 3-1.076.769c-2.399 1.714-4.968 3.168-7.661 4.342l-26.263 7.889z" fill="#4fa04b"/><path d="m59 3-6 4-1-4-3 1-3-2-6 4-3-3-8 7-3-3-5 8-1-1c-1.698 4.529-2.688 9.288-2.937 14.109l1.463 4.902 8.139-3.187c13.636-4.722 25.141-14.235 32.335-26.824z" fill="#6bb566"/><path d="m33.84 27.905c.957-.469 1.902-.956 2.83-1.473 3.582 1.675 7.542 2.568 11.497 2.568 2.641 0 5.263-.385 7.792-1.144l5.092-1.528.949-1.328-1.08-.72-5.535 1.661c-4.617 1.385-9.624 1.365-14.251.031 6.06-.137 12.133-.805 18.138-2.009l.823-.233-1.095-.73.604-1.208-.8.227c-5.955 1.191-12.042 1.844-18.119 1.957.482-.32.961-.643 1.433-.977h2.448c5.842 0 11.551-1.521 16.623-4.378l.811-1.621h-6l.676-1.126-7.439 1.24c.414-.399.824-.803 1.227-1.214l7.746-2.582.79-1.318-1.265-.633-4.485 1.495c1.787-2.088 3.438-4.306 4.944-6.638l.806-3.224-1.943 1.295c-1.319 2.122-2.766 4.149-4.328 6.074l1.74-4.349-1.469.98-.414-1.656-3.749 9.371c-1.094 1.103-2.234 2.158-3.411 3.17l4.76-14.28-1.186.395-.863-.575-5.602 16.808c-.79.596-1.598 1.168-2.418 1.724l6.743-19.384-.86-.573-1.378.919-7.225 20.77c-.56.337-1.122.671-1.694.99l5.581-19.535-1.284.856-.809-.809-5.935 20.775c-.805.4-1.62.781-2.445 1.145l6.992-23.307-.803-.804-1.416 1.239-7.159 23.864c-.396.154-.796.299-1.196.445l2.935-19.566-1.164 1.018-.879-.879-3.037 20.248-6.845 2.68.574 1.923 7.806-3.057-.003.008 3.692 1.539c5.634 2.348 11.587 3.538 17.692 3.538h8.581c.113-.079.23-.151.343-.232l1.076-.768-.333-1h-9.667c-5.84 0-11.534-1.139-16.923-3.384l-1.732-.722c.622-.244 1.234-.507 1.845-.771 7.249 2.568 14.82 3.877 22.515 3.877h3.629l-.334-1 .714-1h-4.01c-6.767 0-13.437-1.045-19.864-3.095zm12.659-8.308 12.553-2.092c-4.409 2.25-9.278 3.451-14.255 3.487.575-.455 1.143-.919 1.702-1.395z" fill="#3d8738"/><path d="m34.001 37c-.792-1.474-1.797-2.822-2.972-4l-.029-.029c-2.656-2.649-6.174-4.434-10.065-4.864-10.255-1.133-18.935 6.867-18.935 16.893 0 2.66.263 5.314.784 7.922l.124 1.195c.061.588.092 1.179.092 1.771 0 1.403-.172 2.801-.512 4.162l-.488 1.95 1.951-.488c1.361-.34 2.758-.512 4.161-.512.591 0 1.182.031 1.771.092l1.195.124c2.608.521 5.262.784 7.922.784 4.445 0 8.491-1.706 11.52-4.498" fill="#893b1b"/><path d="m30.52 57.502 3.481-20.502c-.792-1.474-1.797-2.822-2.972-4l-.029-.029c-1.482-1.479-3.24-2.674-5.174-3.529-.62-.143-1.248-.264-1.891-.335-10.255-1.133-18.935 6.867-18.935 16.893 0 2.66.263 5.314.784 7.922l.124 1.195c.061.588.092 1.179.092 1.771 0 1.403-.172 2.801-.512 4.162l-.042.167c.882-.139 1.772-.217 2.666-.217.591 0 1.182.031 1.771.092l1.195.124c2.608.521 5.262.784 7.922.784 4.445 0 8.491-1.706 11.52-4.498z" fill="#a44b2f"/><path d="m31.029 33-.029-.029c-2.656-2.649-6.174-4.434-10.065-4.864-.653-.072-1.299-.105-1.937-.105l-.17.17c-.53.53-.828 1.25-.828 2 0 1.562 1.266 2.828 2.828 2.828h.172v1c0 1.657 1.343 3 3 3 0 1.657 1.343 3 3 3 0 1.111.604 2.08 1.501 2.599l4.118 2.546 1.382-8.145c-.792-1.475-1.797-2.822-2.972-4z" fill="#f9cb66"/><path d="m31.029 33-.029-.029c-1.482-1.479-3.24-2.674-5.174-3.529-.62-.143-1.248-.264-1.891-.335-2.026-.224-3.985-.079-5.834.355-.059.231-.101.467-.101.71 0 1.562 1.266 2.828 2.828 2.828h.172v1c0 1.657 1.343 3 3 3 0 1.657 1.343 3 3 3 0 1.111.604 2.08 1.501 2.599l4.118 2.546 1.382-8.145c-.792-1.475-1.797-2.822-2.972-4z" fill="#ffd992"/><path d="m20.999 55.002.001-.002-.713.427c-2.805 1.684-6.015 2.573-9.287 2.573l1.183-.592c3.103-1.551 5.529-4.187 6.817-7.408l-4.211 2.106c-1.177.588-2.474.894-3.789.894 0-1.315.306-2.612.894-3.789l2.106-4.211c-3.221 1.288-5.857 3.714-7.408 6.817l-.592 1.183c0-3.272.889-6.482 2.572-9.287l.428-.713-.002.001c-2.886.962-5.3 2.924-6.839 5.482.129 1.489.331 2.972.625 4.44l.124 1.195c.061.587.092 1.178.092 1.77 0 1.403-.172 2.801-.512 4.162l-.488 1.95 1.951-.488c1.361-.34 2.758-.512 4.161-.512.591 0 1.182.031 1.771.092l1.195.124c1.468.294 2.951.496 4.44.625 2.558-1.539 4.52-3.953 5.481-6.839z" fill="#672a0d"/><path d="m11 58 1.183-.592c3.103-1.551 5.529-4.187 6.817-7.408l-4.211 2.106c-1.177.588-2.474.894-3.789.894 0-1.315.306-2.612.894-3.789l2.106-4.211c-3.221 1.288-5.857 3.714-7.408 6.817l-.592 1.183c0-3.272.889-6.482 2.572-9.287l.428-.713-.002.001c-1.455.485-2.79 1.226-3.953 2.167-.014.278-.045.551-.045.832 0 2.66.263 5.314.784 7.922l.124 1.195c.061.588.092 1.179.092 1.771 0 1.403-.172 2.801-.512 4.162l-.042.167c.882-.139 1.772-.217 2.666-.217.591 0 1.182.031 1.771.092l1.195.124c1.468.294 2.951.496 4.44.625 2.558-1.538 4.52-3.952 5.482-6.839v-.002l-.713.427c-2.805 1.684-6.015 2.573-9.287 2.573z" fill="#893b1b"/><path d="m27 46.902v1.548c0 3.553 1.412 6.961 3.924 9.474 2.61 2.61 6.149 4.076 9.84 4.076 1.37 0 2.623-.774 3.236-2 1.315.658 2.766 1 4.236 1 1.097 0 2.117-.565 2.699-1.496l.885-1.416c2.078-3.325 3.18-7.167 3.18-11.088" fill="#e7b532"/><path d="m41.476 46.953 3.524 7.047v1.764c0 1.471-.342 2.921-1 4.236 1.315.658 2.766 1 4.236 1 1.097 0 2.117-.565 2.699-1.496l.885-1.416c2.078-3.325 3.18-7.167 3.18-11.088z" fill="#c99728"/><path d="m32 37-3.992 6.387c-.659 1.054-1.008 2.272-1.008 3.515 0 2.512 1.419 4.808 3.666 5.931 1.535.767 3.228 1.167 4.944 1.167h12.233c2.021 0 3.96-.803 5.389-2.232 1.132-1.132 1.768-2.667 1.768-4.268 0-1.601-.636-3.136-1.768-4.268-3.99-3.99-9.402-6.232-15.046-6.232z" fill="#f9cb66"/><path d="m38.186 37h-5.436l-2.742 4.387c-.659 1.054-1.008 2.272-1.008 3.515 0 2.512 1.419 4.808 3.666 5.931 1.535.767 3.228 1.167 4.944 1.167h12.233c1.511 0 2.975-.449 4.215-1.273.608-.958.942-2.074.942-3.227 0-1.601-.636-3.136-1.768-4.268-3.99-3.99-9.402-6.232-15.046-6.232z" fill="#ffd992"/><path d="m35 40c1.295 4.532 4.088 8.492 7.924 11.231l1.076.769c-.634-4.439-3.194-8.371-6.996-10.748z" fill="#a44b2f"/></g><path d="m60.289 22.658 2.605-5.21c.155-.31.138-.678-.044-.973s-.503-.475-.85-.475h-4.234l2.091-3.485c.144-.239.181-.527.103-.794s-.264-.49-.513-.615l-1.283-.641 1.806-7.222c.1-.401-.057-.822-.394-1.06-.339-.238-.788-.244-1.131-.015l-4.819 3.213-.656-2.624c-.067-.27-.245-.5-.489-.634-.245-.135-.534-.159-.798-.072l-2.536.845-2.593-1.729c-.336-.224-.773-.224-1.109 0l-5.318 3.545-2.42-2.42c-.372-.373-.969-.391-1.366-.045l-7.296 6.384-2.338-2.338c-.215-.215-.513-.324-.82-.287-.303.035-.573.205-.735.464l-4.333 6.934-.111-.111c-.24-.24-.586-.341-.919-.271-.332.072-.605.308-.725.626-1.64 4.373-2.622 8.944-2.941 13.598-3.368.535-6.509 1.997-9.127 4.341-3.811 3.413-5.996 8.302-5.996 13.413 0 2.721.271 5.452.79 8.025l.124 1.195c.057.553.086 1.114.086 1.668 0 1.321-.162 2.639-.482 3.919l-.488 1.95c-.085.341.015.701.263.95.19.19.445.293.707.293.081 0 .162-.01.243-.03l1.951-.488c1.816-.455 3.715-.59 5.586-.396l1.102.109c2.666.534 5.397.805 8.118.805 4.213 0 8.24-1.476 11.463-4.146 2.788 2.67 6.428 4.146 10.301 4.146 1.433 0 2.748-.648 3.612-1.738 1.225.485 2.543.738 3.86.738 1.452 0 2.778-.735 3.547-1.966l.885-1.416c1.954-3.127 3.092-6.723 3.296-10.405.001-.014.002-.028.003-.041.001-.014.003-.028.003-.041h-.001c.019-.209.031-.419.031-.631 0-1.879-.732-3.646-2.061-4.975-.833-.833-1.734-1.569-2.667-2.251 2.176-1.057 4.269-2.289 6.233-3.692l1.076-.769c.357-.255.506-.714.368-1.13l-.839-2.517 4.704-6.586c.157-.22.218-.495.169-.761-.049-.267-.203-.501-.429-.652zm-4.01 10.342.333 1h-8.612c-5.84 0-11.534-1.139-16.923-3.384l-1.732-.722c.622-.244 1.234-.507 1.845-.771 7.249 2.568 14.82 3.877 22.515 3.877zm-13.936 19.045.874.624.165.331h-7.772c-1.553 0-3.108-.367-4.497-1.062-1.92-.96-3.113-2.89-3.113-5.037 0-1.057.296-2.089.856-2.985l3.326-5.321 1.945 1.945c1.385 4.621 4.289 8.7 8.216 11.505zm-5.4-9.638c2.564 1.746 4.463 4.258 5.449 7.155-2.336-1.937-4.204-4.395-5.449-7.155zm-4.943-6.407c-.345 0-.665.178-.848.47l-2.854 4.567c-.189-.309-.298-.665-.298-1.037 0-.552-.448-1-1-1-1.103 0-2-.897-2-2 0-.552-.448-1-1-1-1.103 0-2-.897-2-2v-1c0-.552-.448-1-1-1h-.171c-1.009 0-1.829-.82-1.829-1.829 0-.427.153-.827.421-1.154.466.012.934.031 1.405.083 3.538.391 6.9 2.017 9.495 4.605.704.706 1.331 1.477 1.89 2.293h-.211zm-5.352-26.938 1.289 1.289-2.667 17.778c-.628-.235-1.271-.425-1.922-.587zm10.829-4.171 1.4 1.4-5.622 19.677c-.805.4-1.62.781-2.444 1.144zm-9.052 23.212c-.396.154-.796.299-1.196.445l2.705-18.036 5.109-4.471zm12.435-21.475 3.217-2.145-6.682 19.21c-.56.337-1.122.671-1.694.989zm3.706 16.372c5.265 0 10.42-1.239 15.102-3.571l-1.34 2.68c-5.803 1.132-11.725 1.758-17.639 1.868.482-.32.961-.643 1.433-.977zm-4.451-1.039 6.405-18.413 1.29.86-5.276 15.828c-.79.597-1.599 1.169-2.419 1.725zm18.669 2.097.893.595-4.292 1.288c-4.617 1.385-9.623 1.364-14.249.031 5.918-.135 11.842-.777 17.648-1.914zm-.747-6.058c-4.135 1.929-8.639 2.958-13.234 2.992.576-.456 1.145-.919 1.704-1.396l9.576-1.596zm-4.223-10.341 1.857-1.238c-.927 1.361-1.909 2.676-2.941 3.948zm2.615 4.144-3.163 1.055c1.156-1.351 2.254-2.756 3.292-4.211l-.528 2.11c-.101.404.069.81.399 1.046zm-5.952 4.093 6.275-2.092-1.372 2.286-6.133 1.022c.416-.4.826-.805 1.23-1.216zm1.474-8.968-3.116 7.789c-1.094 1.104-2.234 2.158-3.41 3.17l4.365-13.097 1.501-.501zm-31.534 8.884c.2.144.447.21.697.182.303-.035.573-.205.735-.464l2.258-3.613-2.723 15.248c-.113-.015-.225-.04-.338-.052-.973-.107-1.935-.114-2.887-.071.29-3.827 1.032-7.595 2.258-11.23zm-10.431 44.285c-2.101-.218-4.236-.065-6.278.445l-.333.083.083-.333c.359-1.438.542-2.92.542-4.404 0-.623-.033-1.253-.097-1.874l-.138-1.288c-.262-1.311-.455-2.639-.583-3.973.907-1.424 2.095-2.634 3.479-3.534-1.091 2.441-1.661 5.092-1.661 7.781 0 .464.319.867.77.973.454.106.917-.111 1.125-.526l.592-1.184c.984-1.968 2.434-3.64 4.206-4.885l-.693 1.386c-.654 1.309-1 2.773-1 4.236 0 .552.448 1 1 1 1.463 0 2.928-.346 4.236-1l1.385-.692c-1.245 1.772-2.917 3.222-4.885 4.206l-1.184.592c-.415.208-.632.673-.526 1.125.107.45.51.769.974.769 2.686 0 5.333-.568 7.771-1.657-.904 1.391-2.108 2.572-3.524 3.473-1.349-.129-2.704-.326-4.067-.596zm8.303.885c1.664-1.551 2.939-3.506 3.681-5.74.098-.393-.05-.806-.375-1.046s-.763-.262-1.11-.054l-.712.428c-1.317.791-2.73 1.396-4.198 1.804 1.912-1.597 3.413-3.653 4.353-6.003.154-.386.054-.826-.251-1.107-.306-.282-.754-.344-1.125-.159l-4.211 2.105c-.709.355-1.477.595-2.263.71.115-.786.355-1.553.71-2.263l2.105-4.211c.186-.372.123-.819-.159-1.125s-.723-.405-1.107-.251c-2.35.94-4.406 2.441-6.003 4.353.409-1.467 1.014-2.88 1.804-4.198l.428-.712c.215-.359.184-.813-.078-1.14-.262-.326-.703-.454-1.097-.323-2.179.726-4.118 1.996-5.665 3.658-.003-.235-.016-.472-.016-.708 0-4.543 1.942-8.889 5.33-11.922 2.513-2.251 5.568-3.601 8.838-3.968-.1.342-.168.695-.168 1.061 0 1.827 1.286 3.359 3 3.738v.091c0 1.897 1.327 3.489 3.102 3.898.342 1.486 1.515 2.658 3.001 3 .169.73.554 1.389 1.082 1.919l-.025.04c-.759 1.215-1.16 2.613-1.16 4.045v1.548c0 3.284 1.1 6.395 3.112 8.929-2.852 2.333-6.401 3.621-10.112 3.621-.237 0-.474-.013-.711-.018zm22.475.018c-3.45 0-6.693-1.343-9.132-3.783-1.278-1.278-2.23-2.791-2.843-4.436.438.359.907.685 1.43.946 1.664.833 3.529 1.273 5.391 1.273h8.39v.764c0 1.308-.309 2.618-.895 3.789-.446.892-1.343 1.447-2.341 1.447zm10.208-3.442-.885 1.416c-.401.643-1.093 1.026-1.851 1.026-.995 0-1.99-.181-2.925-.524.448-1.184.689-2.447.689-3.712v-.764h1.843c1.872 0 3.648-.602 5.124-1.699-.496 1.488-1.16 2.921-1.995 4.257zm3.028-10.058c0 1.345-.524 2.609-1.475 3.561-1.251 1.25-2.913 1.939-4.682 1.939h-2.225l-.667-1.333c-.723-4.66-3.412-8.759-7.418-11.263l-1.908-1.192-1.211-1.212h3.772c5.417 0 10.509 2.109 14.339 5.939.951.952 1.475 2.216 1.475 3.561zm-15.813-11.5h-3.613c-.534-.918-1.143-1.792-1.84-2.613 4.907 1.731 10.029 2.613 15.266 2.613h6.795c-1.75 1.134-3.59 2.132-5.492 2.989-3.347-1.936-7.147-2.989-11.116-2.989zm18.298-5h-2.781c-6.768 0-13.437-1.045-19.865-3.095.957-.469 1.902-.956 2.831-1.473 3.583 1.675 7.543 2.568 11.497 2.568 2.641 0 5.263-.385 7.792-1.144l3.528-1.058z"/></g></svg>