<svg id="Layer_1" height="512" viewBox="0 0 64 64" width="512" xmlns="http://www.w3.org/2000/svg" data-name="Layer 1"><path d="m58 27v10a26 26 0 0 1 -52 0v-10a26 26 0 0 0 52 0z" fill="#ffcc3e"/><path d="m6 27a26 26 0 0 1 52 0 6 6 0 0 0 -6-6 6.009 6.009 0 0 0 -6-6 4.985 4.985 0 0 0 -5-5h-3a7.5 7.5 0 0 0 -12 0h-3a4.985 4.985 0 0 0 -5 5 6.009 6.009 0 0 0 -6 6 6.009 6.009 0 0 0 -6 6z" fill="#f7a539"/><path d="m28.16 21.84 1.84 3.55-5.33 2.77-1.84-3.55z" fill="#27935d"/><path d="m29 32h6v4h-6z" fill="#27935d"/><path d="m36.534 23.467h4.002v5.996h-4.002z" fill="#27935d" transform="matrix(.707 -.707 .707 .707 -7.427 35)"/><path d="m52 21a6 6 0 0 1 6 6 26 26 0 0 1 -52 0 6.009 6.009 0 0 1 6-6 6.009 6.009 0 0 1 6-6 4.985 4.985 0 0 1 5-5h3a7.5 7.5 0 0 1 12 0h3a4.985 4.985 0 0 1 5 5 6.009 6.009 0 0 1 6 6zm-12.76 9 2.83-2.83-4.24-4.24-2.83 2.83zm-4.24 6v-4h-6v4zm-5-10.61-1.84-3.55-5.33 2.77 1.84 3.55z" fill="#e8d3af"/><g fill="#d6b58e"><circle cx="48.5" cy="24.5" r="1.5"/><circle cx="37.5" cy="15.5" r="1.5"/><circle cx="24.5" cy="17.5" r="1.5"/><circle cx="18.5" cy="29.5" r="1.5"/><circle cx="11.5" cy="29.5" r="1.5"/><circle cx="22.5" cy="40.5" r="1.5"/><circle cx="24.5" cy="46.5" r="1.5"/><circle cx="46.5" cy="33.5" r="1.5"/><circle cx="39.5" cy="43.5" r="1.5"/><circle cx="17.5" cy="22.5" r="1.5"/><circle cx="51.5" cy="30.5" r="1.5"/><circle cx="42.5" cy="20.5" r="1.5"/><circle cx="29.5" cy="13.5" r="1.5"/><circle cx="15.5" cy="37.5" r="1.5"/><circle cx="46.5" cy="41.5" r="1.5"/><circle cx="32.5" cy="47.5" r="1.5"/></g><path d="m41.447 34.1a1 1 0 0 0 -1.342.448l-1 2a1 1 0 0 0 .448 1.342 1.022 1.022 0 0 0 1.342-.448l1-2a1 1 0 0 0 -.448-1.342z" fill="#27935d"/><path d="m32.316 20.949 3-1a1 1 0 0 0 -.632-1.9l-3 1a1 1 0 0 0 -.632 1.265 1.066 1.066 0 0 0 1.264.635z" fill="#27935d"/><path d="m22.707 32.293a1 1 0 0 0 -1.414 1.414l2 2a1.034 1.034 0 0 0 1.414 0 1 1 0 0 0 0-1.414z" fill="#27935d"/><path d="m32.948 40.684a1 1 0 0 0 -1.264-.633l-3 1a1 1 0 0 0 -.632 1.265.97.97 0 0 0 1.264.633l3-1a1 1 0 0 0 .632-1.265z" fill="#27935d"/></svg>