<svg id="Layer_3" height="512" viewBox="0 0 48 48" width="512" xmlns="http://www.w3.org/2000/svg" data-name="Layer 3"><path d="m27.01 37.5a.75.75 0 0 0 -.75-.75h-13.76a.7511.7511 0 0 1 -.75-.75v-5.5a5.2561 5.2561 0 0 1 5.25-5.25h10a5.1634 5.1634 0 0 1 1.8789.35.75.75 0 0 0 .542-1.3989 6.6622 6.6622 0 0 0 -2.4209-.4511h-.4365a7.75 7.75 0 1 0 -9.127 0h-.4365a6.7577 6.7577 0 0 0 -6.75 6.75v5.5a2.2528 2.2528 0 0 0 2.25 2.25h13.76a.75.75 0 0 0 .75-.75zm-11.26-20a6.25 6.25 0 1 1 6.25 6.25 6.257 6.257 0 0 1 -6.25-6.25z"/><path d="m36.75 31.131v-1.631a3.75 3.75 0 0 0 -7.5 0v1.631a2.2491 2.2491 0 0 0 -1 1.869v3a2.2528 2.2528 0 0 0 2.25 2.25h5a2.2528 2.2528 0 0 0 2.25-2.25v-3a2.2491 2.2491 0 0 0 -1-1.869zm-6-1.631a2.25 2.25 0 0 1 4.5 0v1.25h-4.5zm5.5 6.5a.7511.7511 0 0 1 -.75.75h-5a.7511.7511 0 0 1 -.75-.75v-3a.7511.7511 0 0 1 .75-.75h5a.7511.7511 0 0 1 .75.75z"/><circle cx="33" cy="34.5" r=".75"/></svg>