<svg id="Capa_1" enable-background="new 0 0 512 512" height="512" viewBox="0 0 512 512" width="512" xmlns="http://www.w3.org/2000/svg"><g><g><path d="m256.561 7.549c-117.303 0-178.757 95.092-178.757 212.395 0 93.466 39.017 230.673 114.214 282.577 14.171 9.781 31.93-6.066 23.819-21.254l-19.958-37.372c-15.337-28.719-15.337-63.196 0-91.915l43.485-81.427c6.834-12.797 25.146-12.89 32.11-.163l44.165 80.72c15.964 29.178 15.964 64.478 0 93.656l-20.777 37.974c-8.16 14.913 9.042 31.033 23.258 21.712 76.796-50.351 116.078-189.857 116.078-284.507-.001-117.304-60.335-212.396-177.637-212.396z" fill="#fd7e42"/></g><g><g><path d="m301.706 12.764c35.579 38.946 53.645 96.482 53.645 160.669 0 53.997-12.792 122.588-38.034 180.9 14.257 28.527 13.701 62.32-1.68 90.431l-20.777 37.974c-8.16 14.913 9.041 31.033 23.258 21.712 76.796-50.351 116.079-189.857 116.079-284.507 0-101.171-44.888-185.811-132.491-207.179z" fill="#fa6931"/></g></g><g><path d="m241.996 226.916-15.326-15.326c-7.734-7.734-7.734-20.274 0-28.008l15.326-15.326c7.734-7.734 20.274-7.734 28.008 0l15.326 15.326c7.734 7.734 7.734 20.274 0 28.008l-15.326 15.326c-7.734 7.734-20.274 7.734-28.008 0z" fill="#ffdace"/></g><g><path d="m284.376 182.628-5.649-5.649c-.554 4.522-2.547 8.901-6.018 12.372l-13.418 13.418c-8.261 8.261-21.655 8.261-29.916 0l-7.769-7.769c-.765 6.24 1.229 12.754 6.018 17.544l13.418 13.418c8.261 8.261 21.655 8.261 29.916 0l13.418-13.418c8.261-8.261 8.261-21.655 0-29.916z" fill="#ffc3ab"/></g><path d="m402.014 189.385c-3.949-37.588-20.842-73.006-47.567-99.731l-9.175-9.176c-49.226-49.225-129.319-49.224-178.544 0l-9.175 9.176c-26.724 26.725-43.617 62.143-47.567 99.731-3.948 37.588 5.214 75.744 25.801 107.439l51.184 78.8c1.456-6.197 3.515-12.286 6.2-18.171l-44.722-68.853c-38.444-59.186-30.125-138.365 19.78-188.27l9.175-9.176c43.337-43.338 113.855-43.338 157.192 0l9.175 9.176c49.905 49.905 58.224 129.084 19.78 188.27l-44.737 68.875c2.683 5.885 4.75 11.97 6.204 18.166l51.194-78.816c20.588-31.696 29.751-69.852 25.802-107.44z" fill="#fc5327"/><path d="m333.863 141.146c-20.798-20.798-48.45-32.252-77.863-32.252s-57.064 11.454-77.863 32.252c-32.11 32.111-32.11 84.36 0 116.472l19.627 19.627c8.031 8.031 17.671 14.323 28.173 18.447l7.17-13.425c-9.216-3.337-17.683-8.713-24.666-15.697l-19.627-19.627c-26.225-26.225-26.225-68.896 0-95.121 17.946-17.946 41.807-27.829 67.186-27.829s49.241 9.884 67.186 27.83c26.225 26.225 26.225 68.896 0 95.121l-19.627 19.627c-7.274 7.275-15.839 12.619-25.449 15.951l7.339 13.413c10.732-4.114 20.612-10.515 28.787-18.689l19.627-19.627c32.11-32.112 32.11-84.361 0-116.473z" fill="#fc5327"/><path d="m256.561 7.549c-2.737 0-5.433.069-8.109.171v183.492c0 4.169 3.379 7.549 7.549 7.549 4.169 0 7.549-3.38 7.549-7.549v-183.535c-2.31-.076-4.634-.128-6.989-.128z" fill="#ffdace"/><g><path d="m318.125 512c-2.459 0-4.87-1.2-6.32-3.411-2.285-3.486-1.312-8.166 2.174-10.452 70.525-46.24 112.668-177.758 112.668-278.194 0-124.439-66.764-204.846-170.088-204.846-104.005 0-171.208 80.407-171.208 204.846 0 98.203 41.502 228.426 110.953 276.365 3.43 2.368 4.292 7.07 1.925 10.501-2.369 3.43-7.069 4.294-10.501 1.924-45.191-31.193-72.857-87.546-88.107-129.327-18.662-51.126-29.366-109.248-29.366-159.463 0-61.057 16.688-116.045 46.991-154.833 33.276-42.595 81.45-65.11 139.314-65.11 57.81 0 105.797 22.524 138.776 65.138 30.361 39.23 46.409 92.761 46.409 154.806 0 51.096-10.826 109.947-29.701 161.463-15.508 42.324-43.673 99.123-89.786 129.357-1.276.836-2.712 1.236-4.133 1.236z" fill="#557981"/></g></g></svg>