<svg height="512" viewBox="0 0 64 64" width="512" xmlns="http://www.w3.org/2000/svg"><g id="Layer_31" data-name="Layer 31"><path d="m45 10a3 3 0 0 0 -3-3 32.129 32.129 0 0 0 -3.982.248 49.306 49.306 0 0 0 -24.98 10.66l-.674.547a45.6 45.6 0 0 0 -7.737 8.045 13.132 13.132 0 0 0 -2.627 7.878 13.134 13.134 0 0 0 6.618 11.4l.382.222a17.073 17.073 0 0 0 12.071 5 13.866 13.866 0 0 0 12.629-8.129 179.6 179.6 0 0 0 10.178-28.606z" fill="#c9c9c9"/><path d="m45 10a3 3 0 0 0 -3-3 32.129 32.129 0 0 0 -3.982.248 49.32 49.32 0 0 0 -9.7 2.228 49.3 49.3 0 0 0 -10.284 6.432l-.674.547a45.6 45.6 0 0 0 -7.733 8.045 13.134 13.134 0 0 0 3.991 19.284l.382.216a17.073 17.073 0 0 0 12.071 5 13.791 13.791 0 0 0 2.564-.248 13.839 13.839 0 0 0 5.06-5.881 179.6 179.6 0 0 0 10.183-28.606z" fill="#ddd"/><path d="m19.77 26.2a44.293 44.293 0 0 0 -10.285 20.188 43.143 43.143 0 0 0 20.943-13.163 54.117 54.117 0 0 0 7.672-11.435l6.57-13.13a2.976 2.976 0 0 0 -.165-.3l-5.572 2.918a68.138 68.138 0 0 0 -19.163 14.922z" fill="#5a5b5d"/><path d="m17 47.6a9.4 9.4 0 0 0 2.18 6.021 9.406 9.406 0 0 0 7.225 3.379 22.644 22.644 0 0 0 12.159-3.541l8.389-5.338a66.45 66.45 0 0 0 14.328-12.3 2.91 2.91 0 0 0 .719-1.913 2.908 2.908 0 0 0 -2.908-2.908 8.814 8.814 0 0 1 -5.507-1.932 9.436 9.436 0 0 0 -5.896-2.068 39.565 39.565 0 0 0 -16.579 3.641l-1.654.764a33.179 33.179 0 0 0 -6.456 3.932 15.528 15.528 0 0 0 -6 12.263z" fill="#f9cb6e"/><path d="m48.953 44.121a66.425 66.425 0 0 0 12.983-10.816 2.909 2.909 0 0 0 -2.844-2.305 8.814 8.814 0 0 1 -5.507-1.932 9.436 9.436 0 0 0 -5.896-2.068 39.565 39.565 0 0 0 -16.579 3.641l-1.654.764a33.179 33.179 0 0 0 -6.456 3.932 15.474 15.474 0 0 0 -3.2 3.412 15.5 15.5 0 0 0 -.8 4.851 9.4 9.4 0 0 0 2.18 6.021 9.406 9.406 0 0 0 7.225 3.379 22.644 22.644 0 0 0 12.159-3.541z" fill="#ffd997"/><path d="m29.225 50.975-.45-1.95 1.891-.436a51.029 51.029 0 0 0 19.72-9.378l1.228 1.578a53.026 53.026 0 0 1 -20.5 9.749z" fill="#ffecd2"/><path d="m31.5 35.868-1-1.736a31.409 31.409 0 0 1 15.562-4.132h1.938v2h-1.938a29.416 29.416 0 0 0 -14.562 3.868z" fill="#ffecd2"/><path d="m30.666 48.589-1.891.436.45 1.95 1.89-.437a53.026 53.026 0 0 0 20.5-9.749l-1.228-1.578a51.029 51.029 0 0 1 -19.721 9.378z"/><path d="m46.062 32h1.938v-2h-1.938a31.409 31.409 0 0 0 -15.562 4.132l.992 1.736a29.416 29.416 0 0 1 14.57-3.868z"/><path d="m59.093 30a7.848 7.848 0 0 1 -4.883-1.712 10.47 10.47 0 0 0 -6.521-2.288 40.419 40.419 0 0 0 -6.463.526c1.34-3.954 2.56-7.982 3.619-12.006l1.122-4.265a1 1 0 0 0 .033-.255 4.006 4.006 0 0 0 -4-4 33.185 33.185 0 0 0 -4.106.256 50.265 50.265 0 0 0 -25.488 10.875l-.674.548a46.71 46.71 0 0 0 -7.9 8.219 14.133 14.133 0 0 0 4.289 20.751l.268.154a18.013 18.013 0 0 0 8.369 4.663 10.345 10.345 0 0 0 9.647 6.534 23.61 23.61 0 0 0 12.7-3.7l8.389-5.339a67.322 67.322 0 0 0 14.539-12.481 3.907 3.907 0 0 0 -2.94-6.48zm-23.31-2.193a55.008 55.008 0 0 0 3.217-5.57l3.667-7.337c-1.088 4.048-2.328 8.094-3.7 12.054-1.073.239-2.133.532-3.184.853zm-18.966 14.687a42.024 42.024 0 0 1 -5.938 2.426 43.361 43.361 0 0 1 9.637-18.055 66.925 66.925 0 0 1 18.884-14.706l3.26-1.707-5.45 10.891a53.162 53.162 0 0 1 -4.624 7.579q-.959.382-1.895.811l-1.654.763a34.3 34.3 0 0 0 -6.656 4.052 16.422 16.422 0 0 0 -5.564 7.946zm-7.646-1.194a22.077 22.077 0 0 1 6.3-18.356 41.07 41.07 0 0 1 19.076-10.8l1.36-.341a68.883 68.883 0 0 0 -16.88 13.727 45.37 45.37 0 0 0 -9.661 17.338zm-6.171-6.922a12.212 12.212 0 0 1 2.427-7.278 44.7 44.7 0 0 1 7.567-7.867l.674-.547a48.251 48.251 0 0 1 24.473-10.446 31.329 31.329 0 0 1 3.859-.24 1.98 1.98 0 0 1 .542.084l-8.48 2.121a43.065 43.065 0 0 0 -20.007 11.326 24.069 24.069 0 0 0 -6.868 20.019l.274 2.2a12.15 12.15 0 0 1 -4.461-9.372zm8.483 12.448a44.1 44.1 0 0 0 4.744-1.826 16.7 16.7 0 0 0 -.227 2.6 10.278 10.278 0 0 0 .134 1.618 16.019 16.019 0 0 1 -4.651-2.392zm49.044-11.662a65.334 65.334 0 0 1 -14.111 12.112l-8.39 5.339a21.6 21.6 0 0 1 -11.621 3.385 8.4 8.4 0 0 1 -8.405-8.4 14.439 14.439 0 0 1 5.609-11.469 32.274 32.274 0 0 1 6.266-3.814l1.654-.762a38.832 38.832 0 0 1 16.16-3.555 8.458 8.458 0 0 1 5.272 1.85 9.858 9.858 0 0 0 6.132 2.15 1.907 1.907 0 0 1 1.434 3.164z"/></g></svg>