<svg id="Capa_1" enable-background="new 0 0 512.162 512.162" height="512" viewBox="0 0 512.162 512.162" width="512" xmlns="http://www.w3.org/2000/svg"><g><g><g><g><path d="m290.706 428.46h-217.953c-8.284 0-15-6.716-15-15v-244.314c0-27.697 22.534-50.231 50.231-50.231h182.722c8.284 0 15 6.716 15 15v279.545c0 8.285-6.716 15-15 15z" fill="#fff2df"/><path d="m439.409 428.46h-163.703v-309.545h128.472c27.742 0 50.231 22.489 50.231 50.231v244.314c0 8.285-6.715 15-15 15z" fill="#fbd7b2"/></g><g fill="#fcd1a6"><path d="m210.631 289.741c-6.271 0-11.997-4.063-14.115-9.951-2.116-5.882-.243-12.691 4.605-16.649 4.845-3.955 11.85-4.502 17.217-1.265 5.353 3.228 8.252 9.645 7.003 15.795-1.406 6.919-7.631 12.07-14.71 12.07z"/><path d="m150.631 229.741c-6.244 0-12.031-4.056-14.11-9.951-2.078-5.892-.277-12.683 4.6-16.649 4.855-3.948 11.842-4.507 17.217-1.265 5.354 3.228 8.252 9.645 7.003 15.795-1.406 6.918-7.632 12.07-14.71 12.07z"/></g></g><g><path d="m465.928 415.779h-87.266c-8.284 0-15-6.716-15-15v-60.006c0-23.302 18.958-42.26 42.26-42.26h32.745c23.303 0 42.261 18.958 42.261 42.26v60.006c0 8.284-6.716 15-15 15z" fill="#fde4c3"/><path d="m438.667 298.513h-16.372v117.266h43.633c8.284 0 15-6.716 15-15v-60.006c0-23.302-18.958-42.26-42.261-42.26z" fill="#f3c49b"/></g></g><path d="m110.501 418.258c-15.979 0-55.937-2.79-81.78-28.633-32.106-32.104-28.617-85.888-28.453-88.161.355-4.919 4.334-8.897 9.252-9.252.255-.019 2.585-.18 6.37-.18 15.983 0 55.946 2.79 81.79 28.634 32.106 32.105 28.618 85.887 28.454 88.16-.355 4.918-4.333 8.897-9.253 9.252-.254.018-2.558.18-6.371.18z" fill="#d2d02c"/><path d="m311.304 138.914c-3.227 0-5.25-.134-5.631-.161-7.431-.537-13.342-6.447-13.879-13.879-.145-1.994-3.204-49.166 25.346-77.716 28.55-28.551 75.725-25.489 77.715-25.346 7.432.537 13.342 6.447 13.879 13.879.145 1.994 3.204 49.165-25.346 77.715-23.103 23.102-58.401 25.508-72.084 25.508z" fill="#b5b424"/><g><g><path d="m481.247 490.511h-450.332c-8.284 0-15-5.463-15-12.202v-29.116c0-18.508 18.509-33.565 41.259-33.565h397.814c22.75 0 41.259 15.057 41.259 33.565v29.116c0 6.739-6.716 12.202-15 12.202z" fill="#ba602b"/><path d="m454.988 415.629h-198.907v74.883h225.166c8.284 0 15-5.463 15-12.202v-29.116c0-18.509-18.509-33.565-41.259-33.565z" fill="#964c22"/></g><g><path d="m497.162 490.511h-482.162c-8.284 0-15-6.716-15-15s6.716-15 15-15h482.162c8.284 0 15 6.716 15 15s-6.716 15-15 15z" fill="#964c22"/><path d="m497.162 460.511h-241.081v30h241.081c8.284 0 15-6.716 15-15s-6.716-15-15-15z" fill="#6f3716"/></g></g></g></svg>