<svg id="Слой_1" height="512" viewBox="0 0 512 512" width="512" xmlns="http://www.w3.org/2000/svg" data-name="Слой 1"><path d="m325.39 95.74a180.59 180.59 0 0 0 -219.75-41.59c-7.4 3.87-25.68 3.56-39 2.7a16.44 16.44 0 0 0 -17.33 14.07c-2.16 14.93-6.11 36.54-11.75 45.25a180.58 180.58 0 0 0 238.12 256.55c6.69-3.66 23.25-3.46 35.49-2.7a14 14 0 0 0 14.88-13.23c.63-11.77 2.28-27.3 6.59-32.93 51.03-66.68 49.98-162.33-7.25-228.12z" fill="#b26628"/><path d="m161 383.51a171.87 171.87 0 0 1 -101.53-56.56c-49.95-57.48-55.97-142.22-14.64-206.07 5.17-7.88 9.52-24.31 13.06-48.72a7.82 7.82 0 0 1 7.69-6.67h.49c32.57 2.09 40.86-2.25 43.58-3.67a171.13 171.13 0 0 1 202.42 32.26c9.23-2.51 18.29 4.18 25.28 9.36 3.54 2.63 7 5.37 10.6 7.93a189.22 189.22 0 0 0 -246.33-64.9c-1.12.59-8.05 3.43-34.44 1.74a25.24 25.24 0 0 0 -26.45 21.46c-3 20.69-6.91 36.31-10.45 41.79a190.56 190.56 0 0 0 -29.91 114.87 187.48 187.48 0 0 0 46 112 189.58 189.58 0 0 0 110.38 62.3q7.28 1.26 14.61 1.94c-3.77-6.2-6.92-12.87-10.36-19.06z" fill="#282828"/><path d="m57.06 64.98 260.39 299.65" fill="#b26628"/><path d="m176.88 189.64-113.28-130.35a8.67 8.67 0 0 0 -13.09 11.37l113.82 131a55 55 0 0 1 12.55-12.02z" fill="#282828"/><path d="m69 148.69s-5.43 21.75 17.4 39.62 45.42 29.87 57.31 64.55" fill="#b26628"/><path d="m143.69 261.53a8.67 8.67 0 0 1 -8.2-5.86c-9.15-26.7-25.12-38.58-43.61-52.32-3.53-2.63-7.18-5.35-10.88-8.21-26.91-21.14-20.71-47.44-20.43-48.55l16.82 4.2v-.1c-.15.68-3.51 16.85 14.31 30.8 3.49 2.73 7.06 5.39 10.51 8 19.06 14.17 38.76 28.83 49.66 60.61a8.68 8.68 0 0 1 -8.2 11.48z" fill="#282828"/><path d="m72.24 232.23s-5.43 21.77 17.4 39.62 45.42 29.87 57.31 64.55" fill="#b26628"/><path d="m146.95 345.07a8.67 8.67 0 0 1 -8.2-5.86c-9.15-26.7-25.12-38.57-43.6-52.32-3.53-2.63-7.19-5.34-10.85-8.21-27-21.1-20.74-47.44-20.47-48.55l16.82 4.2v-.1c-.15.68-3.51 16.85 14.31 30.8 3.49 2.74 7.06 5.39 10.51 8 19.06 14.17 38.76 28.83 49.66 60.61a8.68 8.68 0 0 1 -8.2 11.48z" fill="#282828"/><path d="m140.28 86.73s22.29-2.34 36.81 22.76 23.24 49.14 55.92 65.75" fill="#b26628"/><path d="m233 183.91a8.63 8.63 0 0 1 -3.92-.94c-30-15.22-41.72-36.78-53.09-57.63-2.06-3.77-4.19-7.67-6.41-11.52-11.56-20-28.23-18.49-28.4-18.48a8.67 8.67 0 1 1 -1.81-17.24c1.14-.12 28.09-2.59 45.22 27 2.33 4 4.51 8 6.62 11.89 11 20.22 20.56 37.69 45.73 50.48a8.67 8.67 0 0 1 -3.93 16.4z" fill="#282828"/><path d="m503.33 297.66a180.59 180.59 0 0 0 -138.59-175.53c-8.12-1.94-21.74-14.13-31.22-23.55a16.44 16.44 0 0 0 -22.29-.74c-11.42 9.85-28.58 23.57-38.56 26.45a180.55 180.55 0 0 0 50.14 354c99.66-.01 180.57-80.97 180.52-180.63z" fill="#ffd169"/><path d="m322.81 486.94c-104.32 0-189.19-84.87-189.19-189.19a187.47 187.47 0 0 1 38.73-114.75 190.56 190.56 0 0 1 97.92-67c6.27-1.81 19.47-11 35.3-24.68a25.24 25.24 0 0 1 34 1.14c18.81 18.58 25.9 21 27.13 21.28a189.26 189.26 0 0 1 145.3 183.92 189.29 189.29 0 0 1 -189.19 189.28zm-.81-384.41a7.77 7.77 0 0 0 -5.09 1.88c-18.68 16.1-32.75 25.6-41.81 28.21-73.1 21.08-124.1 88.99-124.1 165.13 0 94.76 77.09 171.85 171.85 171.85a172 172 0 0 0 171.81-171.93 171.21 171.21 0 0 0 -131.92-167.11c-3-.71-12.09-2.88-35.31-25.81a7.74 7.74 0 0 0 -5.43-2.22z" fill="#282828"/><path d="m323.12 227.94a48.67 48.67 0 0 0 -97.33 0v1.47a48.68 48.68 0 0 0 -8.34 91.46 42.74 42.74 0 0 0 21.29 53.35 42.7 42.7 0 1 0 84.36 9.36z" fill="#b26628"/><path d="m280.42 434.95a51.42 51.42 0 0 1 -51.36-51.36c0-1.6.07-3.2.22-4.79a51.46 51.46 0 0 1 -22.06-53.64 57.35 57.35 0 0 1 10.11-102.16 57.34 57.34 0 0 1 114.46 4.94v155.64a51.42 51.42 0 0 1 -51.37 51.37zm-6-247a40 40 0 0 0 -40 40v1.21a8.67 8.67 0 0 1 -6.55 8.67 40 40 0 0 0 -6.79 75.17 8.67 8.67 0 0 1 4.51 10.92 34.07 34.07 0 0 0 17 42.53 8.67 8.67 0 0 1 4.66 9.68 34 34 0 1 0 67.24 7.47v-155.66a40 40 0 0 0 -40.04-40z" fill="#282828"/><path d="m212 318s15.61 7.31 35.81-1" fill="#ff9912"/><path d="m228.31 329.6c-11.69 0-19.48-3.55-20-3.78a8.67 8.67 0 0 1 7.28-15.73c.66.29 12.87 5.47 28.92-1.1a8.67 8.67 0 1 1 6.56 16 59.91 59.91 0 0 1 -22.76 4.61z" fill="#282828"/><path d="m238.34 380.42s3.06-21.17 34.28-18.41" fill="#ff9912"/><path d="m238.35 389.08a8.8 8.8 0 0 1 -1.25-.09 8.67 8.67 0 0 1 -7.34-9.82c1.46-10.13 12.46-28.56 43.62-25.81a8.67 8.67 0 0 1 -1.52 17.27c-22.79-2-24.92 10.88-24.94 11a8.67 8.67 0 0 1 -8.57 7.45z" fill="#282828"/><path d="m266.19 247.23s-9.18 20.2 10.1 27.55" fill="#ff9912"/><path d="m276.28 283.44a8.63 8.63 0 0 1 -3.08-.57c-9.68-3.69-14-10-15.89-14.63-4.71-11.45.39-23.29 1-24.61a8.67 8.67 0 0 1 15.81 7.12c-.76 1.75-2.36 7.09-.74 10.95.33.79 1.34 3.19 6 5a8.67 8.67 0 0 1 -3.09 16.77z" fill="#282828"/><path d="m322.5 227.94a48.67 48.67 0 1 1 97.33 0v1.47a48.68 48.68 0 0 1 8.34 91.46 42.74 42.74 0 0 1 -21.29 53.35 42.7 42.7 0 1 1 -84.36 9.36z" fill="#b26628"/><path d="m365.2 434.95a51.42 51.42 0 0 1 -51.37-51.36v-155.65a57.34 57.34 0 0 1 114.46-4.94 57.35 57.35 0 0 1 10.12 102.15 51.46 51.46 0 0 1 -22.06 53.64q.22 2.39.22 4.79a51.42 51.42 0 0 1 -51.37 51.37zm6-247a40 40 0 0 0 -40 40v155.63a34 34 0 1 0 67.24-7.47 8.67 8.67 0 0 1 4.66-9.68 34.07 34.07 0 0 0 17-42.53 8.67 8.67 0 0 1 4.44-10.9 40 40 0 0 0 -6.85-75.17 8.67 8.67 0 0 1 -6.55-8.67c0-.4 0-.81 0-1.21a40 40 0 0 0 -39.97-40.01z" fill="#282828"/><path d="m433.61 318s-15.61 7.31-35.81-1" fill="#b26628"/><path d="m417.31 329.6a59.91 59.91 0 0 1 -22.79-4.6 8.67 8.67 0 1 1 6.56-16c16.23 6.64 28.73 1.19 28.85 1.13a8.67 8.67 0 1 1 7.35 15.7c-.49.22-8.28 3.77-19.97 3.77z" fill="#282828"/><path d="m407.28 380.42s-3.05-21.17-34.28-18.42" fill="#b26628"/><path d="m398.73 381.83c-.26-1.35-3.15-13.13-25-11.2a8.67 8.67 0 1 1 -1.52-17.27c31.14-2.76 42.16 15.68 43.62 25.81l-17.16 2.48z" fill="#282828"/><path d="m379.43 247.23s9.18 20.2-10.1 27.55" fill="#b26628"/><path d="m369.34 283.44a8.67 8.67 0 0 1 -3.09-16.77c4.7-1.79 5.7-4.22 6-5 1.87-4.56-.71-10.78-.74-10.84a8.67 8.67 0 1 1 15.78-7.17c.6 1.31 5.69 13.16 1 24.61-1.91 4.64-6.21 10.94-15.89 14.63a8.63 8.63 0 0 1 -3.06.54z" fill="#282828"/><path d="m250.46 99.51a8.62 8.62 0 0 1 -4.74-1.41c-17-11.12-47-12.2-47.29-12.21a8.67 8.67 0 0 1 .57-17.34c1.42 0 35.12 1.22 56.24 15a8.67 8.67 0 0 1 -4.75 15.92z" fill="#fff"/></svg>